<svg xmlns="http://www.w3.org/2000/svg" width="400" height="400" fill-rule="evenodd">
    <circle cx="200" cy="200" r="200" fill="white"/>
    <path id="path0" d="M277.571 116.640 C 276.906 117.338,276.463 118.011,276.588 118.136 C 276.713 118.261,276.625 118.363,276.392 118.363 C 275.831 118.363,248.906 145.277,248.906 145.838 C 248.906 146.077,248.804 146.172,248.680 146.048 C 248.556 145.924,245.589 148.720,242.086 152.261 L 235.716 158.699 215.384 158.798 L 195.052 158.896 195.052 162.131 L 195.052 165.366 216.841 165.465 C 231.296 165.530,238.630 165.434,238.630 165.179 C 238.630 164.968,238.808 164.795,239.027 164.795 C 239.554 164.795,241.233 163.356,242.667 161.674 C 242.898 161.402,243.498 160.822,243.999 160.385 C 244.500 159.948,245.289 159.177,245.753 158.673 C 246.217 158.168,246.988 157.375,247.466 156.910 C 247.944 156.446,248.530 155.871,248.769 155.632 C 249.869 154.534,251.900 152.502,252.195 152.205 C 252.617 151.780,254.418 149.979,254.912 149.488 C 255.406 148.996,257.953 146.449,258.444 145.956 C 258.932 145.465,260.613 143.784,261.108 143.292 C 261.318 143.083,262.042 142.364,262.715 141.695 C 263.388 141.026,264.135 140.256,264.374 139.983 C 264.613 139.710,265.383 138.940,266.086 138.273 C 267.658 136.783,268.123 136.313,269.191 135.143 C 269.652 134.638,270.436 133.867,270.934 133.430 C 271.798 132.672,275.638 128.820,276.553 127.795 C 276.792 127.527,277.562 126.762,278.265 126.095 C 278.968 125.428,279.738 124.681,279.977 124.435 C 280.215 124.189,280.857 123.571,281.404 123.061 C 281.950 122.552,282.398 121.983,282.398 121.797 C 282.398 121.611,282.740 121.351,283.159 121.218 C 284.186 120.892,284.261 117.248,283.265 116.084 C 282.127 114.756,279.086 115.053,277.571 116.640 M195.006 183.237 C 194.889 183.541,194.852 185.647,194.923 187.916 L 195.052 192.042 202.169 199.161 L 209.286 206.280 274.784 206.280 L 340.282 206.280 341.216 205.346 C 341.904 204.658,342.150 204.000,342.150 202.854 C 342.150 201.709,341.904 201.051,341.216 200.363 L 340.282 199.429 276.359 199.429 L 212.435 199.429 204.065 191.056 C 195.344 182.333,195.351 182.339,195.006 183.237 M195.023 245.992 C 194.915 246.273,194.877 247.772,194.939 249.322 L 195.052 252.141 217.402 252.239 L 239.753 252.337 265.421 278.024 L 291.089 303.711 292.964 303.711 C 295.372 303.711,296.099 302.971,296.099 300.524 L 296.099 298.728 269.929 272.580 C 255.535 258.199,243.378 246.218,242.912 245.956 C 241.623 245.232,195.301 245.266,195.023 245.992 " stroke="none" fill="#848484" fill-rule="evenodd"></path>
    <path id="path1" d="M86.394 66.984 C 86.394 67.193,85.880 67.364,85.252 67.364 C 84.624 67.364,84.110 67.536,84.110 67.745 C 84.110 67.954,83.853 68.126,83.539 68.126 C 83.225 68.126,82.969 68.297,82.969 68.506 C 82.969 68.716,82.699 68.887,82.370 68.887 C 81.747 68.887,76.118 74.319,76.118 74.920 C 76.118 75.109,75.861 75.477,75.547 75.737 C 75.233 75.998,74.976 76.533,74.976 76.926 C 74.976 77.319,74.805 77.640,74.596 77.640 C 74.386 77.640,74.215 78.069,74.215 78.592 C 74.215 79.115,74.044 79.543,73.834 79.543 C 73.625 79.543,73.454 79.886,73.454 80.304 C 73.454 80.723,73.283 81.066,73.073 81.066 C 72.864 81.066,72.693 81.651,72.693 82.366 C 72.693 83.081,72.479 83.738,72.217 83.825 C 71.839 83.951,71.741 95.080,71.741 137.774 C 71.741 180.467,71.839 191.596,72.217 191.722 C 72.479 191.809,72.693 192.380,72.693 192.991 C 72.693 193.601,72.864 194.101,73.073 194.101 C 73.283 194.101,73.454 194.529,73.454 195.052 C 73.454 195.576,73.625 196.004,73.834 196.004 C 74.044 196.004,74.215 196.346,74.215 196.765 C 74.215 197.184,74.373 197.526,74.565 197.526 C 74.758 197.526,75.038 198.083,75.187 198.763 C 75.337 199.443,75.778 200.276,76.169 200.615 C 76.560 200.954,76.879 201.362,76.879 201.523 C 76.879 201.959,81.365 206.280,81.818 206.280 C 82.032 206.280,82.207 206.432,82.207 206.618 C 82.207 206.804,82.807 207.069,83.539 207.206 C 84.272 207.344,84.872 207.619,84.872 207.819 C 84.872 208.045,91.446 208.183,102.188 208.183 C 111.713 208.183,119.505 208.037,119.505 207.858 C 119.505 207.679,121.518 207.413,123.977 207.267 C 126.437 207.120,128.612 206.838,128.811 206.640 C 129.010 206.442,129.909 206.280,130.809 206.280 C 131.709 206.280,132.445 206.108,132.445 205.899 C 132.445 205.690,133.045 205.519,133.777 205.519 C 134.510 205.519,135.109 205.347,135.109 205.138 C 135.109 204.929,135.709 204.757,136.441 204.757 C 137.174 204.757,137.774 204.608,137.774 204.426 C 137.774 204.244,138.801 203.978,140.057 203.836 C 141.313 203.694,142.341 203.415,142.341 203.216 C 142.341 203.017,142.854 202.854,143.482 202.854 C 144.110 202.854,144.624 202.683,144.624 202.474 C 144.624 202.265,145.052 202.093,145.576 202.093 C 146.099 202.093,146.527 201.922,146.527 201.713 C 146.527 201.503,146.955 201.332,147.479 201.332 L 148.430 201.332 148.430 255.186 C 148.430 290.834,148.559 309.039,148.811 309.039 C 149.020 309.039,149.191 309.810,149.191 310.752 C 149.191 311.694,149.363 312.464,149.572 312.464 C 149.781 312.464,149.952 313.064,149.952 313.796 C 149.952 314.529,150.124 315.128,150.333 315.128 C 150.542 315.128,150.714 315.610,150.714 316.197 C 150.714 316.785,150.965 317.599,151.272 318.005 C 151.580 318.412,151.837 319.128,151.843 319.597 C 151.850 320.066,152.198 320.664,152.617 320.926 C 153.035 321.187,153.378 321.702,153.378 322.071 C 153.378 322.439,153.537 322.740,153.733 322.740 C 153.928 322.740,154.203 323.104,154.344 323.549 C 154.680 324.605,158.936 328.830,159.665 328.830 C 159.975 328.830,160.228 328.993,160.228 329.193 C 160.228 329.393,160.828 329.669,161.560 329.806 C 162.293 329.944,162.892 330.208,162.892 330.394 C 162.892 330.580,163.149 330.733,163.463 330.733 C 163.777 330.733,164.034 330.904,164.034 331.113 C 164.034 331.323,164.805 331.494,165.747 331.494 C 166.689 331.494,167.460 331.665,167.460 331.874 C 167.460 332.106,169.172 332.255,171.836 332.255 C 174.500 332.255,176.213 332.106,176.213 331.874 C 176.213 331.665,176.984 331.494,177.926 331.494 C 178.868 331.494,179.638 331.323,179.638 331.113 C 179.638 330.904,180.067 330.733,180.590 330.733 C 181.113 330.733,181.541 330.561,181.541 330.352 C 181.541 330.143,181.872 329.971,182.275 329.971 C 182.679 329.971,183.266 329.715,183.580 329.401 C 183.894 329.087,184.264 328.830,184.403 328.830 C 184.819 328.830,189.914 323.569,189.914 323.139 C 189.914 322.920,190.060 322.740,190.238 322.740 C 190.415 322.740,190.879 321.970,191.267 321.028 C 191.656 320.086,192.110 319.315,192.276 319.315 C 192.442 319.315,192.578 318.897,192.578 318.386 C 192.578 317.875,192.742 317.356,192.941 317.233 C 193.141 317.109,193.420 315.986,193.562 314.736 C 193.703 313.487,193.968 312.464,194.150 312.464 C 194.332 312.464,194.481 311.865,194.481 311.132 C 194.481 310.400,194.650 309.800,194.856 309.800 C 195.101 309.800,195.219 278.717,195.197 220.171 C 195.178 167.553,195.023 130.542,194.823 130.542 C 194.635 130.542,194.481 129.429,194.481 128.069 C 194.481 126.708,194.335 125.595,194.156 125.595 C 193.977 125.595,193.722 124.439,193.591 123.028 C 193.459 121.616,193.177 120.403,192.965 120.332 C 192.752 120.261,192.578 119.618,192.578 118.903 C 192.578 118.187,192.407 117.602,192.198 117.602 C 191.989 117.602,191.817 117.260,191.817 116.841 C 191.817 116.422,191.646 116.080,191.437 116.080 C 191.227 116.080,191.055 115.695,191.054 115.224 C 191.053 114.753,190.796 113.877,190.483 113.277 C 190.170 112.678,189.914 111.864,189.914 111.469 C 189.914 111.075,189.743 110.752,189.534 110.752 C 189.324 110.752,189.153 110.409,189.153 109.990 C 189.153 109.572,188.982 109.229,188.773 109.229 C 188.563 109.229,188.392 108.972,188.392 108.658 C 188.392 108.344,188.221 108.088,188.011 108.088 C 187.802 108.088,187.631 107.766,187.631 107.373 C 187.631 106.980,187.374 106.445,187.060 106.185 C 186.746 105.924,186.489 105.475,186.489 105.187 C 186.489 104.898,186.318 104.662,186.108 104.662 C 185.899 104.662,185.728 104.338,185.728 103.942 C 185.728 103.546,185.471 103.123,185.157 103.002 C 184.843 102.882,184.585 102.478,184.583 102.105 C 184.581 101.732,184.067 101.023,183.441 100.528 C 182.815 100.034,182.303 99.465,182.303 99.264 C 182.303 99.063,182.088 98.660,181.827 98.369 C 181.565 98.077,181.160 97.618,180.926 97.349 C 180.693 97.080,180.136 96.608,179.690 96.300 C 179.243 95.993,178.877 95.492,178.877 95.188 C 178.877 94.570,174.943 90.580,174.335 90.580 C 174.120 90.580,173.033 89.638,171.918 88.487 C 170.803 87.336,169.764 86.394,169.609 86.394 C 169.454 86.394,168.900 85.966,168.376 85.442 C 167.853 84.919,167.214 84.491,166.955 84.491 C 166.697 84.491,166.239 84.148,165.937 83.730 C 165.635 83.311,165.122 82.969,164.795 82.969 C 164.469 82.969,163.956 82.627,163.655 82.209 C 163.354 81.791,162.551 81.345,161.871 81.218 C 161.127 81.078,160.544 80.698,160.406 80.265 C 160.280 79.868,159.846 79.543,159.442 79.543 C 159.037 79.543,158.706 79.391,158.706 79.205 C 158.706 79.019,158.107 78.754,157.374 78.617 C 156.641 78.479,156.042 78.204,156.042 78.004 C 156.042 77.804,155.699 77.640,155.281 77.640 C 154.862 77.640,154.520 77.469,154.520 77.260 C 154.520 77.050,154.263 76.879,153.949 76.879 C 153.635 76.879,153.378 76.708,153.378 76.499 C 153.378 76.289,152.864 76.118,152.236 76.118 C 151.608 76.118,151.094 75.954,151.094 75.755 C 151.094 75.555,150.495 75.279,149.762 75.141 C 149.029 75.004,148.430 74.739,148.430 74.553 C 148.430 74.367,148.002 74.215,147.479 74.215 C 146.955 74.215,146.527 74.044,146.527 73.834 C 146.527 73.625,146.099 73.454,145.576 73.454 C 145.052 73.454,144.624 73.302,144.624 73.117 C 144.624 72.932,143.682 72.663,142.531 72.519 C 141.380 72.375,140.438 72.098,140.438 71.904 C 140.438 71.710,139.838 71.551,139.106 71.551 C 138.373 71.551,137.774 71.380,137.774 71.170 C 137.774 70.961,137.174 70.790,136.441 70.790 C 135.709 70.790,135.109 70.618,135.109 70.409 C 135.109 70.200,134.544 70.029,133.853 70.029 C 133.163 70.029,132.435 69.866,132.236 69.668 C 132.037 69.470,130.290 69.189,128.354 69.043 C 126.418 68.897,124.833 68.631,124.833 68.452 C 124.833 68.272,123.635 68.126,122.169 68.126 C 120.647 68.126,119.505 67.962,119.505 67.745 C 119.505 67.530,118.427 67.364,117.031 67.364 C 115.636 67.364,114.558 67.199,114.558 66.984 C 114.558 66.737,109.610 66.603,100.476 66.603 C 91.342 66.603,86.394 66.737,86.394 66.984 M94.386 137.393 L 94.386 193.340 93.435 193.340 C 92.912 193.340,92.483 193.168,92.483 192.959 C 92.483 192.750,92.228 192.578,91.917 192.578 C 91.089 192.578,89.819 191.375,89.819 190.591 C 89.819 190.219,89.648 189.914,89.439 189.914 C 89.229 189.914,89.058 189.657,89.058 189.343 C 89.058 189.029,88.887 188.773,88.677 188.773 C 88.468 188.773,88.297 188.259,88.297 187.631 C 88.297 187.003,88.126 186.489,87.916 186.489 C 87.665 186.489,87.536 169.870,87.536 137.393 C 87.536 104.916,87.665 88.297,87.916 88.297 C 88.126 88.297,88.297 87.869,88.297 87.345 C 88.297 86.822,88.468 86.394,88.677 86.394 C 88.887 86.394,89.058 86.124,89.058 85.793 C 89.058 84.926,91.933 82.207,92.849 82.207 C 93.276 82.207,93.625 82.036,93.625 81.827 C 93.625 81.618,93.796 81.446,94.006 81.446 C 94.258 81.446,94.386 100.349,94.386 137.393 M114.177 83.349 C 114.177 83.571,115.438 83.730,117.199 83.730 C 118.861 83.730,120.316 83.883,120.432 84.070 C 120.547 84.257,122.184 84.532,124.070 84.681 C 125.955 84.830,127.498 85.105,127.498 85.293 C 127.498 85.480,128.097 85.633,128.830 85.633 C 129.562 85.633,130.162 85.804,130.162 86.013 C 130.162 86.223,130.751 86.394,131.471 86.394 C 132.192 86.394,132.873 86.543,132.985 86.724 C 133.098 86.906,134.221 87.172,135.481 87.314 C 136.742 87.457,137.774 87.736,137.774 87.935 C 137.774 88.134,138.202 88.297,138.725 88.297 C 139.248 88.297,139.676 88.468,139.676 88.677 C 139.676 88.887,140.019 89.058,140.438 89.058 C 140.856 89.058,141.199 89.229,141.199 89.439 C 141.199 89.648,141.617 89.819,142.128 89.819 C 142.639 89.819,143.155 89.977,143.274 90.171 C 143.393 90.364,144.003 90.634,144.629 90.772 C 145.254 90.909,145.766 91.179,145.766 91.372 C 145.766 91.565,146.108 91.722,146.527 91.722 C 146.946 91.722,147.288 91.852,147.288 92.010 C 147.288 92.168,147.759 92.499,148.335 92.746 C 148.911 92.992,150.109 93.503,150.999 93.880 C 151.889 94.257,152.617 94.697,152.617 94.857 C 152.617 95.017,152.918 95.147,153.286 95.147 C 153.654 95.147,154.170 95.490,154.431 95.909 C 154.693 96.327,155.163 96.670,155.477 96.670 C 155.790 96.670,156.419 97.098,156.874 97.621 C 157.329 98.145,157.849 98.573,158.030 98.573 C 158.340 98.573,158.800 98.902,160.024 100.000 C 160.316 100.262,160.658 100.476,160.784 100.476 C 161.213 100.476,168.221 107.670,168.221 108.110 C 168.221 108.352,168.649 108.886,169.172 109.297 C 169.696 109.709,170.124 110.364,170.124 110.754 C 170.124 111.143,170.466 111.570,170.885 111.703 C 171.304 111.836,171.646 112.276,171.646 112.680 C 171.646 113.085,171.814 113.416,172.019 113.416 C 172.225 113.416,172.500 113.844,172.632 114.367 C 172.763 114.891,173.023 115.319,173.210 115.319 C 173.396 115.319,173.549 115.661,173.549 116.080 C 173.549 116.499,173.720 116.841,173.930 116.841 C 174.139 116.841,174.310 117.098,174.310 117.412 C 174.310 117.726,174.440 117.983,174.598 117.983 C 174.911 117.983,175.767 120.214,176.094 121.884 C 176.207 122.460,176.451 122.931,176.637 122.931 C 176.822 122.931,176.974 123.359,176.974 123.882 C 176.974 124.405,177.146 124.833,177.355 124.833 C 177.564 124.833,177.735 125.333,177.735 125.944 C 177.735 126.554,177.908 127.111,178.120 127.182 C 178.331 127.252,178.614 129.236,178.749 131.590 C 178.883 133.944,179.139 135.871,179.316 135.871 C 179.737 135.871,179.737 139.571,179.316 139.831 C 179.138 139.941,178.876 141.963,178.734 144.325 C 178.591 146.688,178.308 148.677,178.105 148.747 C 177.902 148.817,177.735 149.288,177.735 149.794 C 177.735 150.300,177.564 150.714,177.355 150.714 C 177.146 150.714,176.974 151.142,176.974 151.665 C 176.974 152.188,176.803 152.617,176.594 152.617 C 176.384 152.617,176.208 153.088,176.201 153.663 C 176.194 154.239,175.937 155.042,175.630 155.449 C 175.323 155.855,175.071 156.497,175.071 156.876 C 175.071 157.254,174.900 157.564,174.691 157.564 C 174.481 157.564,174.310 157.821,174.310 158.135 C 174.310 158.449,174.139 158.706,173.930 158.706 C 173.720 158.706,173.549 159.049,173.549 159.467 C 173.549 159.886,173.396 160.228,173.210 160.228 C 173.023 160.228,172.763 160.657,172.632 161.180 C 172.500 161.703,172.225 162.131,172.019 162.131 C 171.814 162.131,171.646 162.436,171.646 162.808 C 171.646 163.181,171.304 163.733,170.885 164.034 C 170.466 164.336,170.124 164.761,170.124 164.978 C 170.124 165.196,169.696 165.836,169.172 166.400 C 168.649 166.965,168.221 167.527,168.221 167.651 C 168.221 167.774,167.788 168.338,167.259 168.904 C 164.962 171.362,161.085 175.071,160.812 175.071 C 160.681 175.071,160.146 175.500,159.623 176.023 C 159.100 176.546,158.442 176.974,158.161 176.974 C 157.880 176.974,157.245 177.487,156.751 178.113 C 156.256 178.739,155.546 179.252,155.174 179.254 C 154.801 179.256,154.397 179.515,154.277 179.829 C 154.156 180.143,153.733 180.400,153.337 180.400 C 152.941 180.400,152.617 180.539,152.617 180.709 C 152.617 180.879,152.017 181.254,151.284 181.541 C 150.552 181.829,149.952 182.184,149.952 182.331 C 149.952 182.478,149.353 182.711,148.620 182.848 C 147.888 182.986,147.288 183.262,147.288 183.462 C 147.288 183.661,146.946 183.825,146.527 183.825 C 146.108 183.825,145.766 183.996,145.766 184.206 C 145.766 184.415,145.509 184.586,145.195 184.586 C 144.881 184.586,144.624 184.747,144.624 184.943 C 144.624 185.140,143.853 185.416,142.912 185.557 C 141.970 185.699,141.199 185.966,141.199 186.152 C 141.199 186.337,140.856 186.489,140.438 186.489 C 140.019 186.489,139.676 186.660,139.676 186.870 C 139.676 187.079,139.248 187.250,138.725 187.250 C 138.202 187.250,137.774 187.422,137.774 187.631 C 137.774 187.840,137.345 188.011,136.822 188.011 C 136.299 188.011,135.871 188.161,135.871 188.343 C 135.871 188.525,134.676 188.792,133.215 188.936 C 131.755 189.080,130.460 189.359,130.338 189.556 C 130.217 189.753,129.528 189.914,128.807 189.914 C 128.087 189.914,127.498 190.086,127.498 190.295 C 127.498 190.504,126.741 190.676,125.817 190.676 C 124.892 190.676,124.079 190.842,124.009 191.046 C 123.939 191.250,121.698 191.533,119.029 191.675 C 116.361 191.817,114.177 192.078,114.177 192.256 C 114.177 192.433,113.406 192.578,112.464 192.578 L 110.752 192.578 110.752 137.774 L 110.752 82.969 112.464 82.969 C 113.406 82.969,114.177 83.140,114.177 83.349 M154.520 108.438 C 154.520 108.631,153.974 108.908,153.306 109.055 C 151.976 109.347,150.746 110.564,150.726 111.608 C 150.719 111.974,150.542 112.274,150.333 112.274 C 150.106 112.274,149.952 113.733,149.952 115.890 C 149.952 118.046,150.106 119.505,150.333 119.505 C 150.542 119.505,150.714 119.782,150.714 120.121 C 150.714 120.871,153.374 123.519,154.481 123.870 C 154.921 124.009,155.281 124.417,155.281 124.775 C 155.281 125.133,155.617 125.669,156.028 125.965 C 156.439 126.261,156.880 126.982,157.009 127.567 C 157.137 128.152,157.400 128.728,157.594 128.848 C 157.787 128.967,157.945 129.483,157.945 129.994 C 157.945 130.505,158.116 130.923,158.325 130.923 C 158.535 130.923,158.706 131.522,158.706 132.255 C 158.706 132.988,158.877 133.587,159.087 133.587 C 159.312 133.587,159.467 134.983,159.467 137.012 C 159.467 139.042,159.312 140.438,159.087 140.438 C 158.877 140.438,158.706 141.208,158.706 142.150 C 158.706 143.092,158.535 143.863,158.325 143.863 C 158.116 143.863,157.945 144.186,157.945 144.581 C 157.945 144.975,157.689 145.789,157.376 146.388 C 157.064 146.988,156.807 147.778,156.805 148.145 C 156.804 148.511,156.658 148.811,156.481 148.811 C 155.903 148.811,154.520 150.217,154.520 150.805 C 154.520 151.120,153.920 151.890,153.187 152.516 L 151.855 153.654 151.855 157.428 C 151.855 160.765,151.943 161.266,152.617 161.751 C 153.035 162.052,153.378 162.601,153.378 162.969 C 153.378 163.366,153.765 163.736,154.329 163.878 C 154.853 164.009,155.281 164.269,155.281 164.456 C 155.281 164.643,155.623 164.795,156.042 164.795 C 156.461 164.795,156.803 164.967,156.803 165.176 C 156.803 165.394,157.945 165.557,159.467 165.557 C 160.990 165.557,162.131 165.394,162.131 165.176 C 162.131 164.967,162.481 164.795,162.909 164.795 C 163.811 164.795,165.127 163.774,166.933 161.674 C 167.166 161.402,167.723 160.928,168.170 160.620 C 168.616 160.312,168.982 159.768,168.982 159.410 C 168.982 159.053,169.239 158.503,169.553 158.189 C 169.867 157.875,170.124 157.435,170.124 157.211 C 170.124 156.987,170.295 156.803,170.504 156.803 C 170.714 156.803,170.885 156.461,170.885 156.042 C 170.885 155.623,171.016 155.281,171.176 155.281 C 171.573 155.281,172.788 152.410,172.788 151.472 C 172.788 151.055,172.959 150.714,173.168 150.714 C 173.378 150.714,173.549 150.296,173.549 149.785 C 173.549 149.274,173.720 148.750,173.930 148.620 C 174.139 148.491,174.310 147.710,174.310 146.885 C 174.310 146.060,174.481 145.385,174.691 145.385 C 174.933 145.385,175.071 142.404,175.071 137.203 C 175.071 132.001,174.933 129.020,174.691 129.020 C 174.481 129.020,174.310 128.421,174.310 127.688 C 174.310 126.955,174.139 126.356,173.930 126.356 C 173.720 126.356,173.549 125.756,173.549 125.024 C 173.549 124.291,173.388 123.692,173.192 123.692 C 172.995 123.692,172.719 122.921,172.578 121.979 C 172.436 121.037,172.169 120.266,171.983 120.266 C 171.798 120.266,171.646 119.924,171.646 119.505 C 171.646 119.087,171.475 118.744,171.265 118.744 C 171.056 118.744,170.885 118.565,170.885 118.346 C 170.885 118.127,170.457 117.520,169.933 116.997 C 169.410 116.473,168.982 115.876,168.982 115.669 C 168.982 115.196,163.803 109.990,163.333 109.990 C 163.142 109.990,162.772 109.734,162.512 109.420 C 162.251 109.106,161.717 108.849,161.324 108.849 C 160.931 108.849,160.609 108.677,160.609 108.468 C 160.609 108.246,159.340 108.088,157.564 108.088 C 155.890 108.088,154.520 108.245,154.520 108.438 M178.790 254.964 C 178.708 298.218,178.588 309.579,178.211 309.705 C 177.950 309.792,177.735 310.278,177.735 310.783 C 177.735 311.289,177.564 311.703,177.355 311.703 C 177.146 311.703,176.974 311.980,176.974 312.319 C 176.974 313.118,174.203 315.890,173.403 315.890 C 173.065 315.890,172.788 316.061,172.788 316.270 C 172.788 316.480,172.531 316.651,172.217 316.651 C 171.903 316.651,171.646 316.480,171.646 316.270 C 171.646 316.061,171.225 315.890,170.710 315.890 C 169.250 315.890,166.769 313.232,166.468 311.346 C 166.332 310.496,166.071 309.800,165.889 309.800 C 165.706 309.800,165.557 309.201,165.557 308.468 C 165.557 307.735,165.385 307.136,165.176 307.136 C 164.924 307.136,164.795 287.836,164.795 249.997 L 164.795 192.858 165.615 192.147 C 166.066 191.757,166.596 191.437,166.794 191.437 C 166.992 191.437,167.634 190.923,168.221 190.295 C 168.807 189.667,169.440 189.153,169.626 189.153 C 170.089 189.153,172.788 186.577,172.788 186.135 C 172.788 185.939,173.173 185.657,173.644 185.508 C 174.115 185.360,175.442 184.312,176.594 183.179 L 178.687 181.121 178.790 190.751 C 178.846 196.047,178.846 224.943,178.790 254.964 " stroke="none" fill="#008080" fill-rule="evenodd"></path>
</svg>
