<svg xmlns="http://www.w3.org/2000/svg" width="400" height="400" fill-rule="evenodd">
    <circle cx="200" cy="200" r="200" fill="white"/>
    <circle cx="89" cy="162" r="3" stroke="#4c6066" fill="none" stroke-width="3"/>
    <circle cx="311" cy="162" r="3" stroke="#4c6066" fill="none" stroke-width="3"/>
    <circle cx="89" cy="238" r="3" stroke="#4c6066" fill="none" stroke-width="3"/>
    <circle cx="311" cy="238" r="3" stroke="#4c6066" fill="none" stroke-width="3"/>
    <circle cx="174" cy="86" r="3" stroke="#4c6066" fill="none" stroke-width="3"/>
    <circle cx="119" cy="115" r="2" stroke="#4c6066" fill="none" stroke-width="3"/>
    <circle cx="100" cy="138" r="2" stroke="#4c6066" fill="none" stroke-width="3"/>
    <circle cx="93" cy="156" r="4" stroke="#4c6066" fill="none" stroke-width="3"/>
    <circle cx="226" cy="86" r="3" stroke="#4c6066" fill="none" stroke-width="3"/>
    <circle cx="281" cy="115" r="2" stroke="#4c6066" fill="none" stroke-width="3"/>
    <circle cx="300" cy="138" r="2" stroke="#4c6066" fill="none" stroke-width="3"/>
    <circle cx="307" cy="156" r="4" stroke="#4c6066" fill="none" stroke-width="3"/>
    <circle cx="174" cy="314" r="3" stroke="#4c6066" fill="none" stroke-width="3"/>
    <circle cx="119" cy="285" r="2" stroke="#4c6066" fill="none" stroke-width="3"/>
    <circle cx="100" cy="262" r="2" stroke="#4c6066" fill="none" stroke-width="3"/>
    <circle cx="93" cy="244" r="4" stroke="#4c6066" fill="none" stroke-width="3"/>
    <circle cx="226" cy="314" r="3" stroke="#4c6066" fill="none" stroke-width="3"/>
    <circle cx="281" cy="285" r="2" stroke="#4c6066" fill="none" stroke-width="3"/>
    <circle cx="300" cy="262" r="2" stroke="#4c6066" fill="none" stroke-width="3"/>
    <circle cx="307" cy="244" r="4" stroke="#4c6066" fill="none" stroke-width="3"/>
    <circle cx="159" cy="108" r="3" stroke="#4c6066" fill="none" stroke-width="3"/>
    <circle cx="145" cy="97" r="3" stroke="#4c6066" fill="none" stroke-width="3"/>
    <circle cx="168" cy="89" r="5" stroke="#4c6066" fill="none" stroke-width="3"/>
    <circle cx="151" cy="139" r="2" stroke="#4c6066" fill="none" stroke-width="3"/>
    <circle cx="164" cy="142" r="2" stroke="#4c6066" fill="none" stroke-width="3"/>
    <circle cx="116" cy="120" r="4" stroke="#4c6066" fill="none" stroke-width="3"/>
    <circle cx="126" cy="138" r="3" stroke="#4c6066" fill="none" stroke-width="3"/>
    <circle cx="100" cy="147" r="7" stroke="#4c6066" fill="none" stroke-width="3"/>
    <circle cx="241" cy="108" r="3" stroke="#4c6066" fill="none" stroke-width="3"/>
    <circle cx="255" cy="97" r="3" stroke="#4c6066" fill="none" stroke-width="3"/>
    <circle cx="232" cy="89" r="5" stroke="#4c6066" fill="none" stroke-width="3"/>
    <circle cx="249" cy="139" r="2" stroke="#4c6066" fill="none" stroke-width="3"/>
    <circle cx="236" cy="142" r="2" stroke="#4c6066" fill="none" stroke-width="3"/>
    <circle cx="284" cy="120" r="4" stroke="#4c6066" fill="none" stroke-width="3"/>
    <circle cx="274" cy="138" r="3" stroke="#4c6066" fill="none" stroke-width="3"/>
    <circle cx="300" cy="147" r="7" stroke="#4c6066" fill="none" stroke-width="3"/>
    <circle cx="159" cy="292" r="3" stroke="#4c6066" fill="none" stroke-width="3"/>
    <circle cx="145" cy="303" r="3" stroke="#4c6066" fill="none" stroke-width="3"/>
    <circle cx="168" cy="311" r="5" stroke="#4c6066" fill="none" stroke-width="3"/>
    <circle cx="151" cy="261" r="2" stroke="#4c6066" fill="none" stroke-width="3"/>
    <circle cx="164" cy="258" r="2" stroke="#4c6066" fill="none" stroke-width="3"/>
    <circle cx="116" cy="280" r="4" stroke="#4c6066" fill="none" stroke-width="3"/>
    <circle cx="126" cy="262" r="3" stroke="#4c6066" fill="none" stroke-width="3"/>
    <circle cx="100" cy="253" r="7" stroke="#4c6066" fill="none" stroke-width="3"/>
    <circle cx="241" cy="292" r="3" stroke="#4c6066" fill="none" stroke-width="3"/>
    <circle cx="255" cy="303" r="3" stroke="#4c6066" fill="none" stroke-width="3"/>
    <circle cx="232" cy="311" r="5" stroke="#4c6066" fill="none" stroke-width="3"/>
    <circle cx="249" cy="261" r="2" stroke="#4c6066" fill="none" stroke-width="3"/>
    <circle cx="236" cy="258" r="2" stroke="#4c6066" fill="none" stroke-width="3"/>
    <circle cx="284" cy="280" r="4" stroke="#4c6066" fill="none" stroke-width="3"/>
    <circle cx="274" cy="262" r="3" stroke="#4c6066" fill="none" stroke-width="3"/>
    <circle cx="300" cy="253" r="7" stroke="#4c6066" fill="none" stroke-width="3"/>
    <circle cx="157" cy="97" r="9" stroke="#4c6066" fill="none" stroke-width="3"/>
    <circle cx="158" cy="137" r="5" stroke="#4c6066" fill="none" stroke-width="3"/>
    <circle cx="113" cy="135" r="11" stroke="#4c6066" fill="none" stroke-width="3"/>
    <circle cx="243" cy="97" r="9" stroke="#4c6066" fill="none" stroke-width="3"/>
    <circle cx="242" cy="137" r="5" stroke="#4c6066" fill="none" stroke-width="3"/>
    <circle cx="287" cy="135" r="11" stroke="#4c6066" fill="none" stroke-width="3"/>
    <circle cx="191" cy="162" r="3" stroke="#4c6066" fill="none" stroke-width="3"/>
    <circle cx="209" cy="162" r="3" stroke="#4c6066" fill="none" stroke-width="3"/>
    <circle cx="200" cy="179" r="3" stroke="#4c6066" fill="none" stroke-width="3"/>
    <circle cx="157" cy="303" r="9" stroke="#4c6066" fill="none" stroke-width="3"/>
    <circle cx="158" cy="263" r="5" stroke="#4c6066" fill="none" stroke-width="3"/>
    <circle cx="113" cy="265" r="11" stroke="#4c6066" fill="none" stroke-width="3"/>
    <circle cx="243" cy="303" r="9" stroke="#4c6066" fill="none" stroke-width="3"/>
    <circle cx="242" cy="263" r="5" stroke="#4c6066" fill="none" stroke-width="3"/>
    <circle cx="287" cy="265" r="11" stroke="#4c6066" fill="none" stroke-width="3"/>
    <circle cx="191" cy="238" r="3" stroke="#4c6066" fill="none" stroke-width="3"/>
    <circle cx="209" cy="238" r="3" stroke="#4c6066" fill="none" stroke-width="3"/>
    <circle cx="200" cy="221" r="3" stroke="#4c6066" fill="none" stroke-width="3"/>
    <circle cx="140" cy="120" r="20" stroke="#4c6066" fill="none" stroke-width="3"/>
    <circle cx="260" cy="120" r="20" stroke="#4c6066" fill="none" stroke-width="3"/>
    <circle cx="200" cy="168" r="8" stroke="#4c6066" fill="none" stroke-width="3"/>
    <circle cx="140" cy="280" r="20" stroke="#4c6066" fill="none" stroke-width="3"/>
    <circle cx="260" cy="280" r="20" stroke="#4c6066" fill="none" stroke-width="3"/>
    <circle cx="200" cy="232" r="8" stroke="#4c6066" fill="none" stroke-width="3"/>
    <circle cx="200" cy="120" r="40" stroke="#4c6066" fill="none" stroke-width="3"/>
    <circle cx="200" cy="280" r="40" stroke="#4c6066" fill="none" stroke-width="3"/>
    <circle cx="140" cy="200" r="60" stroke="#4c6066" fill="none" stroke-width="3"/>
    <circle cx="260" cy="200" r="60" stroke="#4c6066" fill="none" stroke-width="3"/>
    <circle cx="200" cy="200" r="120" stroke="#4c6066" fill="none" stroke-width="3"/>
</svg>