<svg xmlns="http://www.w3.org/2000/svg" width="400" height="400" fill-rule="evenodd">
    <circle cx="200" cy="200" r="200" fill="white"/>
    <path id="path0" d="M148.500 64.292 C 140.220 65.756,138.029 68.596,138.011 77.891 C 137.990 88.466,141.125 91.616,151.711 91.654 C 163.151 91.695,166.494 88.607,166.494 78.000 C 166.494 67.067,160.149 62.232,148.500 64.292 M228.250 106.821 C 203.262 109.669,185.770 117.573,169.416 133.405 L 165.082 137.600 164.914 128.675 C 164.727 118.757,164.369 117.458,160.919 114.150 C 156.139 109.568,146.634 110.053,142.876 115.071 C 139.462 119.628,139.777 112.663,139.500 189.750 L 139.250 259.250 138.106 262.414 C 135.132 270.644,130.865 274.616,121.606 277.773 C 114.162 280.311,111.811 283.247,111.813 290.000 C 111.817 298.937,115.884 302.783,125.250 302.703 C 143.490 302.549,161.025 287.097,163.775 268.754 C 164.195 265.954,164.484 265.951,166.755 268.723 C 187.472 294.006,232.420 304.313,269.000 292.168 C 289.264 285.440,295.815 278.399,290.852 268.681 C 286.814 260.775,279.980 259.474,269.750 264.664 C 242.352 278.563,206.944 273.456,187.639 252.819 C 166.004 229.692,163.203 186.935,181.528 159.539 C 199.624 132.485,237.893 123.970,270.215 139.806 C 278.972 144.097,283.596 144.016,288.000 139.493 C 291.570 135.826,292.856 130.724,291.420 125.929 C 288.199 115.181,251.718 104.146,228.250 106.821 " stroke="none" fill="#f89d77" fill-rule="evenodd"></path>
</svg>