<svg xmlns="http://www.w3.org/2000/svg" width="400" height="400" fill-rule="evenodd">
    <circle cx="200" cy="200" r="200" fill="white"/>
    <path d="M263.238 29.708c-3.618 1.011-4.72 3.507-5.252 11.892-.188 2.97-.535 6.39-.772 7.6a84.84 84.84 0 0 0-.765 5c-.518 4.309-3.492 12.787-6.315 18-1.949 3.599-3.972 6.963-4.93 8.2-.596.77-1.772 2.39-2.613 3.6-5.185 7.46-14.401 16.489-24.37 23.876-7.911 5.862-9.192 6.766-11.221 7.913a124.08 124.08 0 0 0-3.972 2.371c-5.54 3.483-16.368 9.146-23.028 12.045l-7 3.064c-5.545 2.441-6.992 3.044-9.8 4.083-9.206 3.406-26.524 12.091-32 16.047-.99.715-2.546 1.677-3.459 2.138-1.698.857-8.139 5.601-13.141 9.678-6.255 5.098-23.4 24.274-23.4 26.171 0 .1-1.19 2.124-2.644 4.498-3.714 6.061-5.849 10.436-9.387 19.235-.203.505-.369 1.273-.369 1.705s-.175 1.099-.389 1.481c-.81 1.449-2.057 6.42-3.021 12.052l-1.383 7.843c-1.135 5.942-1.272 7.988-1.07 16 .235 9.335.639 13.627 1.621 17.2.363 1.32.834 4.02 1.047 6s.941 5.49 1.619 7.8c1.131 3.852 1.464 5.162 2.185 8.6.138.66.412 1.56.607 2s.733 2.06 1.194 3.6 1.45 4.262 2.201 6.048 1.661 4.127 2.026 5.2c1.31 3.861 6.811 15.126 9.116 18.669 5.511 8.471 19.345 3.66 19.43-6.757.01-1.122.175-2.562.367-3.2.474-1.568 1.101-4.58 1.659-7.96a68.8 68.8 0 0 1 1.99-8.8c1.039-3.604 1.601-6.106 1.601-7.126 0-.503.156-1.085.346-1.294s.845-2.18 1.456-4.38 1.526-4.948 2.035-6.107 1.312-3.499 1.786-5.2 1.458-4.533 2.187-6.293l2.626-6.6c1.504-3.938 10.206-21.373 11.406-22.855.243-.3 1.121-1.805 1.951-3.345 2.385-4.424 9.178-14.34 12.309-17.968.934-1.082 2.569-3.062 3.633-4.4 4.617-5.804 14.511-15.11 20.665-19.435l1.4-.984-.766 1.18c-.862 1.328-3.822 5.142-5.045 6.5-.442.492-1.209 1.482-1.703 2.2s-2.444 3.377-4.332 5.907-3.744 5.204-4.126 5.943-1.488 2.424-2.461 3.744-1.767 2.547-1.767 2.725-.87 1.832-1.934 3.674c-3.343 5.789-11.16 22.062-12.832 26.714l-2.149 6-1.602 4.4c-.658 1.616-1.883 5.816-1.883 6.455 0 .397-.431 1.696-.957 2.885s-1.085 2.95-1.243 3.912c-.404 2.466-1.431 6.473-1.781 6.948-.403.548-1.642 5.151-2.043 7.595-.182 1.103-.521 2.815-.754 3.805s-.603 2.7-.821 3.8l-.795 3.945c-.219 1.07-.308 2.42-.196 3 .172.895.145.934-.176.255-.297-.628-.384-.375-.406 1.176-.028 1.955-.477 4.972-1.311 8.8-.236 1.087-.444 2.941-.461 4.121s-.148 1.82-.291 1.424-.377 1.439-.518 4.079-.424 6.6-.627 8.8c-1.649 17.847-.613 19.71 11.7 21.054l7.28.789c8.375.902 27.159 1.422 36.4 1.009 36.238-1.621 66.669-10.032 89.15-24.643 12.673-8.236 26.875-21.905 32.634-31.409a43.45 43.45 0 0 1 2.193-3.2c1.333-1.743 1.227-1.567 4.654-7.792 1.303-2.367 2.369-4.421 2.369-4.564s.72-1.783 1.6-3.644 1.6-3.563 1.6-3.782.562-1.617 1.248-3.108 1.663-4.15 2.17-5.91 1.469-4.82 2.137-6.8c1.744-5.167 2.934-9.765 4.013-15.5l.864-4.6.779-3.9c.744-3.444.843-4.156 1.22-8.8l.827-9.8c.755-8.638.408-40.925-.417-38.684-.144.394-.313-1.531-.373-4.278s-.281-5.587-.49-6.313a12.08 12.08 0 0 1-.384-2.722c-.005-1.095-.098-1.271-.426-.803-.341.487-.38.45-.207-.2.198-.744-.095-3.041-.942-7.4l-.759-4.2c-1.116-6.555-2.429-12.034-4.792-20-.652-2.2-1.309-4.72-1.46-5.6s-.517-2.14-.814-2.8c-.719-1.598-1.742-4.698-2.441-7.4-.313-1.21-.905-3.1-1.314-4.2s-.987-2.81-1.282-3.8-1.037-2.838-1.647-4.106-1.11-2.461-1.11-2.65c0-.314-.864-2.45-2.202-5.444-.295-.66-.663-1.74-.818-2.4-.268-1.139-1.659-4.261-4.277-9.6-.647-1.32-1.952-4.2-2.9-6.4-1.628-3.779-5.629-11.767-8.306-16.583-.667-1.2-1.664-3.09-2.214-4.2s-2.009-3.707-3.242-5.772l-3.247-5.6c-3.818-7.006-12.371-19.693-13.85-20.544-1.603-.923-5.822-1.232-8.106-.593m6.935 14.675c1.938 1.198 4.623 5.298 11.927 18.217 12.933 22.874 26.162 53.68 27.864 64.885.241 1.587 1.067 5.277 1.835 8.2 5.386 20.506 7.158 29.029 8.798 42.315l1.365 11c.525 4.167.536 26.593.015 31-2.076 17.572-2.646 20.981-5.398 32.26-6.079 24.911-15.408 43.084-30.126 58.68-4.855 5.144-16.68 14.369-22.447 17.513l-5.606 3.141c-12.885 7.639-43.992 16.179-63.4 17.405-2.2.139-4.63.358-5.4.487-1.918.32-32.259.306-34-.017-.77-.142-4.64-.374-8.6-.515-11.982-.427-11.888-.28-10.219-15.954 7.894-74.114 38.111-130.236 85.096-158.05 6.763-4.003 8.638-5.605 8.452-7.222-.385-3.351-7.249-2.171-22.583 3.884-50.564 19.966-86.339 70.119-100.365 140.7-2.524 12.706-5.54 13.854-10.216 3.888-19.846-42.295-20.883-81.214-3.017-113.2 5.652-10.12 15.416-22.066 23.852-29.184 15.483-13.063 28.904-20.816 51.6-29.81 55.866-22.138 90.535-55.064 95.403-90.606 1.355-9.887 1.984-10.986 5.17-9.017M113.316 324c-.288 1.101-.516 1.002-.516-.224 0-.563.163-.922.362-.799s.269.584.154 1.023m15.777 13.689c-.084.941-.154.271-.156-1.489s.068-2.53.154-1.711a19.97 19.97 0 0 1 .002 3.2m-.799 10.211c-.082 1.045-.15.19-.15-1.9s.068-2.945.15-1.9a29.38 29.38 0 0 1 0 3.8" fill="#354b0c"/>
    <path d="M269.248 50.142c-.257.31-.809 2.353-1.225 4.54-7.372 38.684-40.183 69.236-100.223 93.322C101.178 174.73 72.767 223.544 88.646 284c3.192 12.152 10.136 30.318 12.402 32.443l1.02.957.742-.915c.408-.503 1.029-2.303 1.38-4 15.862-76.75 53.297-126.797 109.41-146.271 12.187-4.229 16.934-4.513 19.565-1.168 2.651 3.37.186 6.662-8.965 11.973-46.576 27.031-76.422 82.332-84.398 156.381l-.866 8c-.648 5.896 3.144 5.618 16.654-1.22 26.52-13.423 55.914-34.863 73.81-53.837 39.08-41.435 62.344-84.582 74.16-137.543 3.626-16.248 3.911-21.718 1.495-28.6-5.409-15.407-9.806-25.667-17.659-41.2-10.464-20.698-16.696-30.607-18.148-28.858" fill="#92e58e"/>
    <path d="M267.057 44.2c-.69.69-1.203 2.988-2.054 9.2-4.868 35.542-39.537 68.468-95.403 90.606-15.175 6.013-25.118 10.949-35 17.374-54.029 35.128-67.485 90.778-37.435 154.82 4.676 9.966 7.692 8.818 10.216-3.888 8.345-41.994 24.623-77.394 47.52-103.342 16.737-18.966 38.174-32.948 62.699-40.895 9.206-2.982 12.416-3.07 12.729-.347.186 1.617-1.689 3.219-8.452 7.222-46.985 27.814-77.202 83.936-85.096 158.05-1.669 15.674-1.763 15.527 10.219 15.954 3.96.141 7.83.373 8.6.515 1.741.323 32.082.337 34 .017.77-.129 3.2-.348 5.4-.487 19.408-1.226 50.515-9.766 63.4-17.405.99-.587 3.513-2.001 5.606-3.141 27.752-15.125 46.464-44.565 54.953-86.46.558-2.755 1.902-12.546 3.018-21.993.521-4.407.51-26.833-.015-31l-1.365-11c-1.64-13.286-3.412-21.809-8.798-42.315-.768-2.923-1.594-6.613-1.835-8.2-1.702-11.205-14.931-42.011-27.864-64.885-9.898-17.507-12.614-20.829-15.043-18.4m5.801 8.632c9.837 14.622 24.315 44.916 32.197 67.368 2.416 6.882 2.131 12.352-1.495 28.6-11.816 52.961-35.08 96.108-74.16 137.543-17.896 18.974-47.29 40.414-73.81 53.837-13.51 6.838-17.302 7.116-16.654 1.22l.866-8c7.976-74.049 37.822-129.35 84.398-156.381 9.151-5.311 11.616-8.603 8.965-11.973-2.631-3.345-7.378-3.061-19.565 1.168-56.113 19.474-93.548 69.521-109.41 146.271-.351 1.697-.972 3.497-1.38 4l-.742.915-1.02-.957c-.61-.572-2.29-3.945-4.183-8.4-30.42-71.575-4.649-129.717 70.935-160.039 60.04-24.086 92.851-54.638 100.223-93.322 1.135-5.957 1.88-6.242 4.835-1.85M112.8 323.776c0 1.226.228 1.325.516.224.115-.439.046-.9-.154-1.023s-.362.236-.362.799m16.128 13.024c0 1.43.073 2.015.161 1.3s.089-1.885 0-2.6-.161-.13-.161 1.3m-.8 9.2c0 1.43.073 2.015.161 1.3s.089-1.885 0-2.6-.161-.13-.161 1.3" fill="#5b8e58"/>
</svg>