<svg width="681" height="672" viewBox="0 0 681 672" fill="none" xmlns="http://www.w3.org/2000/svg">
<path fill-rule="evenodd" clip-rule="evenodd" d="M55.7968 68.5278C49.3968 66.7318 42.6962 65.8258 36.1962 64.9958C34.7962 64.8218 33.4964 65.7928 33.3964 67.1608C33.1964 68.5298 34.197 69.7817 35.497 69.9557C41.797 70.7548 48.2964 71.6097 54.3964 73.3387C55.6964 73.7137 57.097 72.9418 57.497 71.6138C57.897 70.2868 57.0968 68.9038 55.7968 68.5278Z" fill="#C4C2C2" fill-opacity="0.64"/>
<path fill-rule="evenodd" clip-rule="evenodd" d="M75.1959 43.0648C64.8959 32.5538 53.2959 23.3958 43.1959 12.6028C42.2959 11.5948 40.6959 11.5408 39.6959 12.4818C38.6959 13.4238 38.5963 15.0078 39.5963 16.0158C49.6963 26.8398 61.2963 36.0278 71.5963 46.5698C72.5963 47.5538 74.1959 47.5678 75.1959 46.5998C76.0959 45.6328 76.1959 44.0488 75.1959 43.0648Z" fill="#C4C2C2" fill-opacity="0.64"/>
<path fill-rule="evenodd" clip-rule="evenodd" d="M94.4973 2.63576C94.7973 8.65176 95.0967 14.6678 95.3967 20.6848C95.3967 22.0628 96.5973 23.1268 97.9973 23.0598C99.3973 22.9918 100.397 21.8188 100.397 20.4398C100.097 14.4138 99.7973 8.38876 99.4973 2.36376C99.3973 0.985757 98.1971 -0.0712432 96.7971 0.00375683C95.4971 0.0787568 94.3973 1.25876 94.4973 2.63576Z" fill="#C4C2C2" fill-opacity="0.64"/>
<path d="M576.44 102.866C580.268 103.114 584.067 102.988 587.746 101.649C592.898 99.773 597.559 95.6416 601.985 87.6799C601.86 95.356 603.071 100.913 605.546 105.376C607.813 109.463 611.062 112.481 614.945 115.334C609.421 115.187 602.023 115.865 596.825 121.236C593.093 124.093 591.162 126.606 589.831 128.289C589.137 129.167 588.74 129.636 588.384 129.912C588.222 130.037 588.097 130.101 587.947 130.125C587.749 129.912 587.532 129.52 587.364 128.792C587.144 127.842 587.076 126.613 587.074 125.163C587.073 124.449 587.087 123.714 587.101 122.957C587.114 122.207 587.128 121.436 587.122 120.683C587.11 119.205 587.026 117.657 586.669 116.326C585.607 112.369 584.409 109.417 582.051 106.932C580.609 105.412 578.787 104.126 576.44 102.866Z" stroke="#C4C2C2" stroke-width="3.5" stroke-opacity="0.64"/>
<path d="M15.132 472.687L16.1921 471.294L15.132 472.687ZM13.1188 470.978L11.9172 472.25L13.1188 470.978ZM12.4213 470.319L13.6228 469.047L12.4213 470.319ZM11.7237 469.66L10.5222 470.933L11.7237 469.66ZM9.6713 468.001L8.67918 469.443L9.6713 468.001ZM6.01342 465.292L4.85605 466.604L6.01342 465.292ZM5.2956 464.659L6.45297 463.346L5.2956 464.659ZM4.57777 464.026L3.4204 465.339L4.57777 464.026ZM2.16189 460.513L0.621937 461.344L2.16189 460.513ZM1.994 457.204L0.273371 456.885L1.994 457.204ZM2.16787 456.267L0.447246 455.948V455.948L2.16787 456.267ZM3.60914 449.399L2.12662 448.469L3.60914 449.399ZM4.56712 447.872L6.04964 448.801L4.56712 447.872ZM15.3849 444.695L14.9727 442.994L15.3849 444.695ZM19.7959 443.549L19.2891 441.874L19.7959 443.549ZM26.1483 442.831L26.029 444.577L26.1483 442.831ZM28.2996 443.932L26.9446 445.039V445.039L28.2996 443.932ZM28.8974 444.663L30.2523 443.556L28.8974 444.663ZM29.4951 445.395L28.1402 446.502L29.4951 445.395ZM31.0874 447.483L29.6611 448.497L31.0874 447.483ZM31.6427 448.264L33.069 447.25L31.6427 448.264ZM32.1979 449.045L30.7716 450.059L32.1979 449.045ZM33.5435 451.338L35.1232 450.585L33.5435 451.338ZM34.3817 453.096L32.802 453.849L34.3817 453.096ZM34.4845 455.557L32.8497 454.932L34.4845 455.557ZM33.7953 457.362L32.1604 456.737L33.7953 457.362ZM32.6074 459.722L34.0819 460.664L32.6074 459.722ZM31.5763 461.335L30.1018 460.392L31.5763 461.335ZM30.3432 463.669L31.9526 464.356L30.3432 463.669ZM29.9659 464.552L28.3565 463.865L29.9659 464.552ZM29.5885 465.436L27.9791 464.749L29.5885 465.436ZM28.3779 467.783L29.8704 468.696L28.3779 467.783ZM27.8786 468.598L26.3861 467.684L27.8786 468.598ZM27.3793 469.414L25.8867 468.5L27.3793 469.414ZM25.9613 471.63L27.4161 472.602L25.9613 471.63ZM22.9845 474.632L23.4562 476.317L22.9845 474.632ZM22.1204 474.873L21.6486 473.188L22.1204 474.873ZM21.2563 475.115L21.7281 476.801L21.2563 475.115ZM19.3261 475.282L19.7128 473.576L19.3261 475.282ZM18.7925 475.161L18.4058 476.868L18.7925 475.161ZM18.2589 475.041L17.8722 476.747L18.2589 475.041ZM17.5744 474.807L16.1989 473.725L17.5744 474.807ZM17.6502 474.711L19.0258 475.792L17.6502 474.711ZM16.6527 473.845L15.5925 475.237L16.6527 473.845ZM15.8923 473.266L16.9524 471.873L16.1921 471.294L15.132 472.687L14.0719 474.079L14.8322 474.658L15.8923 473.266ZM15.132 472.687L16.1921 471.294C15.5416 470.799 14.9177 470.27 14.3203 469.705L13.1188 470.978L11.9172 472.25C12.6042 472.899 13.3225 473.509 14.0719 474.079L15.132 472.687ZM13.1188 470.978L14.3203 469.705L13.6228 469.047L12.4213 470.319L11.2197 471.591L11.9172 472.25L13.1188 470.978ZM12.4213 470.319L13.6228 469.047L12.9253 468.388L11.7237 469.66L10.5222 470.933L11.2197 471.591L12.4213 470.319ZM11.7237 469.66L12.9253 468.388C12.2179 467.72 11.4637 467.11 10.6634 466.559L9.6713 468.001L8.67918 469.443C9.33109 469.891 9.94524 470.388 10.5222 470.933L11.7237 469.66ZM9.6713 468.001L10.6634 466.559L9.87471 466.017L8.88259 467.458L7.89047 468.9L8.67918 469.443L9.6713 468.001ZM8.88259 467.458L9.87471 466.017L9.086 465.474L8.09388 466.915L7.10176 468.357L7.89047 468.9L8.88259 467.458ZM8.09388 466.915L9.086 465.474C8.41747 465.014 7.77917 464.516 7.17079 463.979L6.01342 465.292L4.85605 466.604C5.56939 467.233 6.31806 467.818 7.10176 468.357L8.09388 466.915ZM6.01342 465.292L7.17079 463.979L6.45297 463.346L5.2956 464.659L4.13823 465.972L4.85605 466.604L6.01342 465.292ZM5.2956 464.659L6.45297 463.346L5.73514 462.713L4.57777 464.026L3.4204 465.339L4.13823 465.972L5.2956 464.659ZM4.57777 464.026L5.73514 462.713C5.21695 462.256 4.82688 461.766 4.54456 461.243L3.00461 462.074L1.46466 462.905C1.95818 463.82 2.61688 464.63 3.4204 465.339L4.57777 464.026ZM3.00461 462.074L4.54456 461.243L4.1232 460.462L2.58325 461.293L1.0433 462.125L1.46466 462.905L3.00461 462.074ZM2.58325 461.293L4.1232 460.462L3.70184 459.682L2.16189 460.513L0.621937 461.344L1.0433 462.125L2.58325 461.293ZM2.16189 460.513L3.70184 459.682C3.51835 459.342 3.44777 458.961 3.54075 458.46L1.82012 458.141L0.0994958 457.822C-0.127673 459.046 0.0295864 460.247 0.621937 461.344L2.16189 460.513ZM1.82012 458.141L3.54075 458.46L3.71463 457.523L1.994 457.204L0.273371 456.885L0.0994958 457.822L1.82012 458.141ZM1.994 457.204L3.71463 457.523L3.8885 456.586L2.16787 456.267L0.447246 455.948L0.273371 456.885L1.994 457.204ZM2.16787 456.267L3.8885 456.586C4.05547 455.686 4.19335 454.781 4.30215 453.87L2.5645 453.662L0.826843 453.455C0.726959 454.291 0.600422 455.122 0.447246 455.948L2.16787 456.267ZM2.5645 453.662L4.30215 453.87L4.41549 452.921L2.67783 452.713L0.94018 452.506L0.826843 453.455L2.5645 453.662ZM2.67783 452.713L4.41549 452.921L4.52882 451.972L2.79117 451.764L1.05352 451.557L0.94018 452.506L2.67783 452.713ZM2.79117 451.764L4.52882 451.972C4.6044 451.339 4.79626 450.8 5.09166 450.329L3.60914 449.399L2.12662 448.469C1.54008 449.404 1.18662 450.442 1.05352 451.557L2.79117 451.764ZM3.60914 449.399L5.09166 450.329L5.57065 449.565L4.08813 448.635L2.60561 447.705L2.12662 448.469L3.60914 449.399ZM4.08813 448.635L5.57065 449.565L6.04964 448.801L4.56712 447.872L3.0846 446.942L2.60561 447.705L4.08813 448.635ZM4.56712 447.872L6.04964 448.801C6.25554 448.473 6.54172 448.241 7.00295 448.098L6.48305 446.427L5.96315 444.756C4.75176 445.133 3.76065 445.864 3.0846 446.942L4.56712 447.872ZM6.48305 446.427L7.00295 448.098L7.91135 447.815L7.39145 446.144L6.87155 444.473L5.96315 444.756L6.48305 446.427ZM7.39145 446.144L7.91135 447.815L8.81976 447.532L8.29986 445.861L7.77996 444.19L6.87155 444.473L7.39145 446.144ZM8.29986 445.861L8.81976 447.532C9.54375 447.307 10.2869 447.155 11.0511 447.077L10.873 445.336L10.6949 443.595C9.70086 443.697 8.72859 443.895 7.77996 444.19L8.29986 445.861ZM10.873 445.336L11.0511 447.077L12.006 446.979L11.8279 445.238L11.6498 443.498L10.6949 443.595L10.873 445.336ZM11.8279 445.238L12.006 446.979L12.9609 446.882L12.7828 445.141L12.6048 443.4L11.6498 443.498L11.8279 445.238ZM12.7828 445.141L12.9609 446.882C13.9186 446.784 14.8642 446.622 15.7972 446.396L15.3849 444.695L14.9727 442.994C14.1944 443.183 13.4053 443.318 12.6048 443.4L12.7828 445.141ZM15.3849 444.695L15.7972 446.396L16.7265 446.17L16.3143 444.47L15.9021 442.769L14.9727 442.994L15.3849 444.695ZM16.3143 444.47L16.7265 446.17L17.6559 445.945L17.2437 444.244L16.8314 442.544L15.9021 442.769L16.3143 444.47ZM17.2437 444.244L17.6559 445.945C18.5433 445.73 19.4256 445.49 20.3026 445.224L19.7959 443.549L19.2891 441.874C18.4744 442.121 17.6552 442.344 16.8314 442.544L17.2437 444.244ZM19.7959 443.549L20.3026 445.224L21.2214 444.946L20.7147 443.271L20.2079 441.596L19.2891 441.874L19.7959 443.549ZM20.7147 443.271L21.2214 444.946L22.1402 444.668L21.6335 442.993L21.1267 441.318L20.2079 441.596L20.7147 443.271ZM21.6335 442.993L22.1402 444.668C22.7829 444.474 23.4357 444.4 24.1089 444.446L24.2281 442.7L24.3474 440.954C23.2528 440.879 22.1758 441.001 21.1267 441.318L21.6335 442.993ZM24.2281 442.7L24.1089 444.446L25.0689 444.512L25.1882 442.766L25.3075 441.02L24.3474 440.954L24.2281 442.7ZM25.1882 442.766L25.0689 444.512L26.029 444.577L26.1483 442.831L26.2676 441.085L25.3075 441.02L25.1882 442.766ZM26.1483 442.831L26.029 444.577C26.4408 444.605 26.7068 444.748 26.9446 445.039L28.2996 443.932L29.6546 442.824C28.7918 441.769 27.6236 441.178 26.2676 441.085L26.1483 442.831ZM28.2996 443.932L26.9446 445.039L27.5424 445.771L28.8974 444.663L30.2523 443.556L29.6546 442.824L28.2996 443.932ZM28.8974 444.663L27.5424 445.771L28.1402 446.502L29.4951 445.395L30.8501 444.287L30.2523 443.556L28.8974 444.663ZM29.4951 445.395L28.1402 446.502C28.6653 447.145 29.1723 447.81 29.6611 448.497L31.0874 447.483L32.5138 446.469C31.9802 445.719 31.4256 444.991 30.8501 444.287L29.4951 445.395ZM31.0874 447.483L29.6611 448.497L30.2163 449.278L31.6427 448.264L33.069 447.25L32.5138 446.469L31.0874 447.483ZM31.6427 448.264L30.2163 449.278L30.7716 450.059L32.1979 449.045L33.6243 448.031L33.069 447.25L31.6427 448.264ZM32.1979 449.045L30.7716 450.059C31.2233 450.695 31.6208 451.372 31.9638 452.091L33.5435 451.338L35.1232 450.585C34.6946 449.686 34.195 448.834 33.6243 448.031L32.1979 449.045ZM33.5435 451.338L31.9638 452.091L32.3829 452.97L33.9626 452.217L35.5423 451.464L35.1232 450.585L33.5435 451.338ZM33.9626 452.217L32.3829 452.97L32.802 453.849L34.3817 453.096L35.9614 452.343L35.5423 451.464L33.9626 452.217ZM34.3817 453.096L32.802 453.849C32.9837 454.23 32.9946 454.553 32.8497 454.932L34.4845 455.557L36.1194 456.181C36.6091 454.899 36.5514 453.581 35.9614 452.343L34.3817 453.096ZM34.4845 455.557L32.8497 454.932L32.5051 455.835L34.1399 456.459L35.7748 457.083L36.1194 456.181L34.4845 455.557ZM34.1399 456.459L32.5051 455.835L32.1604 456.737L33.7953 457.362L35.4301 457.986L35.7748 457.083L34.1399 456.459ZM33.7953 457.362L32.1604 456.737C31.8852 457.458 31.5428 458.138 31.1329 458.779L32.6074 459.722L34.0819 460.664C34.6213 459.821 35.0708 458.927 35.4301 457.986L33.7953 457.362ZM32.6074 459.722L31.1329 458.779L30.6174 459.586L32.0919 460.528L33.5663 461.471L34.0819 460.664L32.6074 459.722ZM32.0919 460.528L30.6174 459.586L30.1018 460.392L31.5763 461.335L33.0508 462.277L33.5663 461.471L32.0919 460.528ZM31.5763 461.335L30.1018 460.392C29.5751 461.216 29.119 462.08 28.7339 462.982L30.3432 463.669L31.9526 464.356C32.2623 463.631 32.6283 462.938 33.0508 462.277L31.5763 461.335ZM30.3432 463.669L28.7339 462.982L28.3565 463.865L29.9659 464.552L31.5753 465.24L31.9526 464.356L30.3432 463.669ZM29.9659 464.552L28.3565 463.865L27.9791 464.749L29.5885 465.436L31.1979 466.123L31.5753 465.24L29.9659 464.552ZM29.5885 465.436L27.9791 464.749C27.665 465.484 27.3004 466.191 26.8854 466.869L28.3779 467.783L29.8704 468.696C30.3747 467.873 30.8172 467.015 31.1979 466.123L29.5885 465.436ZM28.3779 467.783L26.8854 466.869L26.3861 467.684L27.8786 468.598L29.3711 469.512L29.8704 468.696L28.3779 467.783ZM27.8786 468.598L26.3861 467.684L25.8867 468.5L27.3793 469.414L28.8718 470.327L29.3711 469.512L27.8786 468.598ZM27.3793 469.414L25.8867 468.5C25.4391 469.231 24.979 469.95 24.5064 470.657L25.9613 471.63L27.4161 472.602C27.9148 471.856 28.4 471.098 28.8718 470.327L27.3793 469.414ZM25.9613 471.63L24.5064 470.657L23.9789 471.446L25.4338 472.419L26.8886 473.391L27.4161 472.602L25.9613 471.63ZM25.4338 472.419L23.9789 471.446L23.4514 472.235L24.9062 473.208L26.3611 474.18L26.8886 473.391L25.4338 472.419ZM24.9062 473.208L23.4514 472.235C23.1833 472.636 22.8815 472.843 22.5127 472.946L22.9845 474.632L23.4562 476.317C24.6785 475.975 25.6578 475.232 26.3611 474.18L24.9062 473.208ZM22.9845 474.632L22.5127 472.946L21.6486 473.188L22.1204 474.873L22.5922 476.559L23.4562 476.317L22.9845 474.632ZM22.1204 474.873L21.6486 473.188L20.7846 473.43L21.2563 475.115L21.7281 476.801L22.5922 476.559L22.1204 474.873ZM21.2563 475.115L20.7846 473.43C20.1098 473.619 19.7943 473.594 19.7128 473.576L19.3261 475.282L18.9394 476.989C19.8406 477.193 20.8118 477.057 21.7281 476.801L21.2563 475.115ZM19.3261 475.282L19.7128 473.576L19.1792 473.455L18.7925 475.161L18.4058 476.868L18.9394 476.989L19.3261 475.282ZM18.7925 475.161L19.1792 473.455L18.6456 473.334L18.2589 475.041L17.8722 476.747L18.4058 476.868L18.7925 475.161ZM18.2589 475.041L18.6456 473.334C18.536 473.309 18.45 473.288 18.3848 473.271C18.3525 473.262 18.3278 473.256 18.3098 473.25C18.2912 473.245 18.2835 473.242 18.2844 473.242C18.2852 473.243 18.2897 473.244 18.2973 473.247C18.3048 473.25 18.3176 473.255 18.3345 473.262C18.3591 473.273 18.4361 473.306 18.533 473.368C18.5854 473.401 18.871 473.577 19.0842 473.942C19.2083 474.154 19.3365 474.48 19.3194 474.889C19.3018 475.31 19.1369 475.651 18.9499 475.889L17.5744 474.807L16.1989 473.725C16.0075 473.968 15.8403 474.316 15.8225 474.743C15.8051 475.157 15.9352 475.49 16.063 475.709C16.284 476.087 16.5855 476.277 16.662 476.326C16.871 476.458 17.0775 476.529 17.1542 476.555C17.3609 476.625 17.6164 476.689 17.8722 476.747L18.2589 475.041ZM17.5744 474.807L18.9499 475.889L18.9878 475.841L17.6123 474.759L16.2368 473.677L16.1989 473.725L17.5744 474.807ZM17.6123 474.759L18.9878 475.841L19.0258 475.792L17.6502 474.711L16.2747 473.629L16.2368 473.677L17.6123 474.759ZM17.6502 474.711L19.0258 475.792C19.4161 475.296 19.4297 474.756 19.3839 474.445C19.3413 474.156 19.2368 473.945 19.186 473.851C19.0803 473.655 18.9583 473.517 18.9125 473.465C18.799 473.339 18.6706 473.223 18.5742 473.139C18.364 472.957 18.0694 472.724 17.7128 472.452L16.6527 473.845L15.5925 475.237C15.9359 475.498 16.1575 475.676 16.2798 475.782C16.3497 475.843 16.3417 475.841 16.3026 475.798C16.2939 475.788 16.1977 475.683 16.1063 475.514C16.0626 475.433 15.9623 475.234 15.9211 474.954C15.8767 474.652 15.8888 474.119 16.2747 473.629L17.6502 474.711ZM16.6527 473.845L17.7128 472.452L16.9524 471.873L15.8923 473.266L14.8322 474.658L15.5925 475.237L16.6527 473.845Z" fill="#C4C2C2" fill-opacity="0.64" />
<g clip-path="url(#clip0_0_1)">
<path fill-rule="evenodd" clip-rule="evenodd" d="M596.13 510.376C596.841 528.254 597.716 545.923 598.672 563.153C600.024 587.543 601.423 611.924 603.638 636.158C604.338 643.787 604.781 651.534 605.655 659.114C606.203 663.873 606.984 670.183 607.147 671.011C607.241 671.444 607.381 671.633 607.427 671.694C607.754 672.123 608.069 672.045 608.313 671.803C608.418 671.705 608.675 671.459 608.71 670.776C611.1 625.094 606.436 578.381 605.947 532.643C605.107 453.325 608.442 371.603 615.717 292.915C615.775 292.228 615.484 291.561 615.052 291.465C614.632 291.351 614.224 291.847 614.166 292.534C606.879 371.355 603.533 453.211 604.384 532.681C604.839 575.307 608.931 618.774 607.532 661.459C607.416 660.478 607.299 659.517 607.194 658.639C606.32 651.089 605.888 643.375 605.189 635.777C602.974 611.594 601.575 587.263 600.234 562.904C598.555 532.681 597.109 501.141 596.433 469.353C596.538 457.981 596.643 446.647 596.771 435.313C597.051 410.795 597.867 386.162 598.963 361.7C599.301 354.335 599.651 346.97 599.954 339.605C600.059 337.163 600.362 330.866 600.339 329.989C600.315 328.901 599.756 328.691 599.663 328.672C599.453 328.615 599.161 328.653 598.916 329.187C598.881 329.245 598.765 329.588 598.695 330.351C594.568 374.828 593.88 422.319 594.871 469.315C594.44 518.886 594.253 568.648 594.055 618.093C594.055 618.801 594.404 619.379 594.836 619.385C595.267 619.389 595.617 618.818 595.629 618.11C595.769 582.308 595.908 546.324 596.13 510.376Z" fill="#C4C2C2" fill-opacity="0.64"/>
</g>
<defs>
<clipPath id="clip0_0_1">
<rect width="381" height="148" fill="white" transform="translate(532.371 672) rotate(-90)"/>
</clipPath>
</defs>
</svg>
