<svg xmlns="http://www.w3.org/2000/svg" version="1.1" xmlns:xlink="http://www.w3.org/1999/xlink" xmlns:svgjs="http://svgjs.dev/svgjs" viewBox="0 0 300 100">
  <rect width="100%" height="100%" fill="#404040"></rect>
  <rect width="100%" height="40" fill="#4e9934"></rect>
  <g fill="#4e9934">
    <rect x="0" width="25" height="91" rx="15"></rect>
    <rect x="50" width="25" height="79" rx="15"></rect>
    <rect x="100" width="25" height="60" rx="15"></rect>
    <rect x="150" width="25" height="96" rx="15"></rect>
    <rect x="200" width="25" height="72" rx="15"></rect>
    <rect x="250" width="25" height="92" rx="15"></rect>
    <rect x="300" width="25" height="63" rx="15"></rect>
  </g>
  <g fill="hsl(0, 0%, 25%)">
    <rect x="25" y="18" width="25" height="60" rx="15"></rect>
    <rect x="75" y="0" width="25" height="60" rx="15"></rect>
    <rect x="125" y="13" width="25" height="60" rx="15"></rect>
    <rect x="175" y="23" width="25" height="60" rx="15"></rect>
    <rect x="225" y="17" width="25" height="60" rx="15"></rect>
    <rect x="275" y="9" width="25" height="60" rx="15"></rect>
  </g>
</svg>
