<svg width="1280" height="392" viewBox="0 0 1280 392" fill="none" xmlns="http://www.w3.org/2000/svg">
<g filter="url(#filter0_ng_62_51)">
<path d="M125.738 116.8C131.562 116.8 136.266 117.408 139.85 118.624C143.498 119.776 146.154 121.792 147.818 124.672C149.546 127.488 150.41 131.424 150.41 136.48C150.41 139.552 149.994 142.272 149.162 144.64C148.394 146.944 147.082 148.8 145.226 150.208C143.37 151.616 140.842 152.512 137.642 152.896V153.376C138.794 153.568 139.978 154.016 141.194 154.72C142.474 155.424 143.658 156.48 144.746 157.888C145.834 159.232 146.634 161.056 147.146 163.36L152.906 184H137.45L132.362 163.84C131.786 161.664 130.922 160.16 129.77 159.328C128.682 158.496 127.146 158.08 125.162 158.08C120.81 158.08 117.13 158.08 114.122 158.08C111.178 158.016 108.682 157.952 106.634 157.888C104.65 157.824 102.858 157.76 101.258 157.696L101.546 147.04H125.45C128.01 147.04 130.026 146.784 131.498 146.272C133.034 145.696 134.09 144.704 134.666 143.296C135.306 141.888 135.626 139.936 135.626 137.44C135.626 134.88 135.306 132.928 134.666 131.584C134.09 130.176 133.034 129.216 131.498 128.704C130.026 128.128 128.01 127.84 125.45 127.84C119.434 127.84 114.346 127.872 110.186 127.936C106.026 128 103.178 128.096 101.642 128.224L100.202 117.76C102.89 117.44 105.418 117.216 107.786 117.088C110.154 116.96 112.746 116.896 115.562 116.896C118.378 116.832 121.77 116.8 125.738 116.8ZM114.698 117.76V184H100.202V117.76H114.698ZM183.396 135.328C191.396 135.328 197.124 136.704 200.58 139.456C204.1 142.144 205.86 146.176 205.86 151.552C205.924 155.904 204.836 159.168 202.596 161.344C200.356 163.456 196.484 164.512 190.98 164.512H164.484V156.544H187.044C189.22 156.544 190.596 156.096 191.172 155.2C191.812 154.24 192.132 152.928 192.132 151.264C192.068 149.024 191.396 147.488 190.116 146.656C188.9 145.76 186.82 145.312 183.876 145.312C181.252 145.312 179.204 145.664 177.732 146.368C176.26 147.072 175.236 148.416 174.66 150.4C174.084 152.384 173.796 155.264 173.796 159.04C173.796 163.008 174.148 166.08 174.852 168.256C175.556 170.368 176.74 171.84 178.404 172.672C180.132 173.504 182.5 173.92 185.508 173.92C187.684 173.92 190.372 173.856 193.572 173.728C196.836 173.536 200.1 173.248 203.364 172.864L204.708 181.6C202.852 182.496 200.74 183.2 198.372 183.712C196.004 184.224 193.572 184.576 191.076 184.768C188.58 185.024 186.18 185.152 183.876 185.152C177.86 185.152 172.996 184.288 169.284 182.56C165.636 180.768 162.98 178.048 161.316 174.4C159.716 170.752 158.916 166.08 158.916 160.384C158.916 154.176 159.748 149.248 161.412 145.6C163.076 141.952 165.7 139.328 169.284 137.728C172.868 136.128 177.572 135.328 183.396 135.328ZM244.975 135.328C251.247 135.328 255.727 137.248 258.415 141.088C261.167 144.864 262.543 151.136 262.543 159.904C262.543 163.552 262.191 166.912 261.487 169.984C260.847 173.056 259.663 175.744 257.935 178.048C256.271 180.288 253.935 182.048 250.927 183.328C247.919 184.544 244.015 185.152 239.215 185.152C237.551 185.152 235.631 185.056 233.455 184.864C231.279 184.736 229.039 184.512 226.735 184.192C224.495 183.936 222.351 183.584 220.303 183.136C218.255 182.624 216.495 182.048 215.023 181.408L226.351 173.248C227.567 173.632 228.911 173.984 230.383 174.304C231.855 174.56 233.359 174.752 234.895 174.88C236.431 174.944 237.775 174.944 238.927 174.88C241.103 174.816 242.831 174.368 244.111 173.536C245.455 172.64 246.415 171.136 246.991 169.024C247.567 166.848 247.855 163.84 247.855 160C247.855 156.48 247.599 153.76 247.087 151.84C246.639 149.856 245.775 148.48 244.495 147.712C243.279 146.88 241.551 146.464 239.311 146.464C237.199 146.464 235.279 146.912 233.551 147.808C231.823 148.704 229.903 149.888 227.791 151.36L226.735 144.64C228.399 142.848 230.191 141.248 232.111 139.84C234.031 138.432 236.079 137.344 238.255 136.576C240.431 135.744 242.671 135.328 244.975 135.328ZM229.231 116.8L229.327 132.16C229.327 134.336 229.199 136.448 228.943 138.496C228.751 140.48 228.367 142.432 227.791 144.352L229.135 145.6L229.231 182.08L215.023 181.408V116.8H229.231ZM286.039 136.576V167.776C286.039 169.76 286.455 171.168 287.287 172C288.183 172.832 289.591 173.248 291.511 173.248C293.495 173.248 295.447 172.896 297.367 172.192C299.351 171.424 301.783 170.24 304.663 168.64L305.815 176.416C302.359 179.424 298.967 181.664 295.639 183.136C292.311 184.608 288.887 185.344 285.367 185.344C276.343 185.344 271.831 180.928 271.831 172.096V136.576H286.039ZM317.431 136.576V184H306.199L304.567 174.688L303.223 173.344V136.576H317.431ZM343.522 136.576V184H329.41V136.576H343.522ZM339.586 115.648C342.402 115.648 343.81 117.088 343.81 119.968V125.056C343.81 127.936 342.402 129.376 339.586 129.376H333.442C330.626 129.376 329.218 127.936 329.218 125.056V119.968C329.218 117.088 330.626 115.648 333.442 115.648H339.586ZM369.861 116.8L369.765 168.832C369.765 170.432 370.245 171.648 371.205 172.48C372.165 173.248 373.573 173.632 375.429 173.632H379.269L380.901 183.232C380.133 183.616 379.045 183.936 377.637 184.192C376.229 184.512 374.789 184.736 373.317 184.864C371.845 185.056 370.597 185.152 369.573 185.152C365.285 185.152 361.893 184.032 359.397 181.792C356.901 179.552 355.653 176.416 355.653 172.384V116.8H369.861ZM403.281 135.328C406.609 135.328 409.809 135.808 412.881 136.768C416.017 137.728 418.769 139.296 421.137 141.472L420.177 148C418.001 147.36 416.049 146.784 414.321 146.272C412.593 145.76 410.577 145.504 408.273 145.504C406.289 145.504 404.689 145.856 403.473 146.56C402.257 147.264 401.361 148.64 400.785 150.688C400.209 152.736 399.921 155.776 399.921 159.808C399.921 163.584 400.177 166.464 400.689 168.448C401.265 170.368 402.129 171.712 403.281 172.48C404.497 173.184 406.033 173.536 407.889 173.536C409.553 173.536 410.993 173.376 412.209 173.056C413.425 172.672 414.641 172.128 415.857 171.424C417.073 170.656 418.449 169.728 419.985 168.64L421.041 175.648C419.121 178.336 416.625 180.608 413.553 182.464C410.481 184.256 406.705 185.152 402.225 185.152C396.145 185.152 391.793 182.976 389.169 178.624C386.609 174.272 385.329 168.032 385.329 159.904C385.329 153.568 385.969 148.64 387.249 145.12C388.593 141.536 390.609 139.008 393.297 137.536C395.985 136.064 399.313 135.328 403.281 135.328ZM432.753 116.8V184H421.521L420.081 175.264L418.545 174.208V143.104L419.121 141.856C418.929 139.872 418.769 137.888 418.641 135.904C418.577 133.856 418.545 131.776 418.545 129.664V116.8H432.753ZM458.834 136.576V184H444.722V136.576H458.834ZM454.898 115.648C457.714 115.648 459.122 117.088 459.122 119.968V125.056C459.122 127.936 457.714 129.376 454.898 129.376H448.754C445.938 129.376 444.53 127.936 444.53 125.056V119.968C444.53 117.088 445.938 115.648 448.754 115.648H454.898ZM503.893 135.328C512.853 135.328 517.333 139.712 517.333 148.48V184H503.125V152.896C503.125 150.784 502.741 149.344 501.973 148.576C501.205 147.744 499.893 147.328 498.037 147.328C495.989 147.328 493.877 147.744 491.701 148.576C489.525 149.344 486.837 150.56 483.637 152.224L482.965 144.256C486.357 141.376 489.813 139.168 493.333 137.632C496.917 136.096 500.437 135.328 503.893 135.328ZM482.293 136.576L483.925 145.984L485.077 147.232V184H470.869V136.576H482.293ZM549.646 135.328C555.15 135.328 559.502 135.84 562.702 136.864C565.966 137.888 568.302 139.488 569.71 141.664C571.182 143.84 571.918 146.752 571.918 150.4C571.918 153.92 571.214 156.8 569.806 159.04C568.398 161.216 566.03 162.816 562.702 163.84C559.438 164.864 555.054 165.376 549.55 165.376C544.046 165.376 539.63 164.864 536.302 163.84C533.038 162.816 530.67 161.216 529.198 159.04C527.79 156.864 527.086 153.984 527.086 150.4C527.086 146.816 527.79 143.936 529.198 141.76C530.67 139.52 533.07 137.888 536.398 136.864C539.726 135.84 544.142 135.328 549.646 135.328ZM549.55 144.064C546.03 144.064 543.598 144.544 542.254 145.504C540.91 146.4 540.238 148.032 540.238 150.4C540.238 152.768 540.91 154.432 542.254 155.392C543.598 156.352 546.03 156.832 549.55 156.832C553.07 156.832 555.47 156.352 556.75 155.392C558.03 154.432 558.67 152.768 558.67 150.4C558.67 148.032 558.03 146.4 556.75 145.504C555.47 144.544 553.07 144.064 549.55 144.064ZM577.39 136.576L576.622 142.624L563.95 144.256L560.494 136.576H577.39ZM535.246 162.496L542.35 163.744C541.454 164.256 540.814 165.056 540.43 166.144C540.11 167.232 540.206 168.256 540.718 169.216C541.23 170.176 542.35 170.752 544.078 170.944L561.55 172.96C566.542 173.472 570.062 174.88 572.11 177.184C574.158 179.424 575.182 182.72 575.182 187.072C575.182 191.168 574.35 194.304 572.686 196.48C571.022 198.72 568.366 200.256 564.718 201.088C561.07 201.92 556.206 202.336 550.126 202.336C545.134 202.336 541.006 202.08 537.742 201.568C534.542 201.12 531.982 200.352 530.062 199.264C528.206 198.176 526.894 196.736 526.126 194.944C525.422 193.216 525.07 191.04 525.07 188.416C525.07 186.432 525.422 184.736 526.126 183.328C526.83 181.856 528.014 180.544 529.678 179.392C531.406 178.24 533.806 177.184 536.878 176.224L543.886 173.728L548.974 175.744L545.134 178.24C543.534 179.392 542.222 180.384 541.198 181.216C540.238 181.984 539.534 182.752 539.086 183.52C538.702 184.288 538.51 185.312 538.51 186.592C538.51 188.064 538.83 189.184 539.47 189.952C540.11 190.784 541.262 191.328 542.926 191.584C544.654 191.904 546.99 192.064 549.934 192.064C553.006 192.064 555.406 191.904 557.134 191.584C558.862 191.328 560.046 190.816 560.686 190.048C561.39 189.28 561.742 188.192 561.742 186.784C561.742 185.568 561.486 184.672 560.974 184.096C560.526 183.52 559.726 183.104 558.574 182.848C557.486 182.528 555.95 182.24 553.966 181.984L539.086 180.352C536.59 180.096 534.638 179.424 533.23 178.336C531.822 177.248 530.83 175.936 530.254 174.4C529.742 172.8 529.614 171.2 529.87 169.6C530.126 168 530.702 166.56 531.598 165.28C532.558 164 533.774 163.072 535.246 162.496ZM630.082 135.328C634.05 135.328 637.41 135.872 640.162 136.96C642.914 137.984 644.994 139.776 646.402 142.336C647.874 144.832 648.61 148.288 648.61 152.704V184H637.282L635.266 173.728L634.306 172.288V152.608C634.306 150.368 633.762 148.736 632.674 147.712C631.65 146.688 629.666 146.176 626.722 146.176C624.29 146.176 621.25 146.272 617.602 146.464C613.954 146.592 610.21 146.784 606.37 147.04L605.026 137.632C607.33 137.184 609.986 136.8 612.994 136.48C616.002 136.16 619.01 135.904 622.018 135.712C625.026 135.456 627.714 135.328 630.082 135.328ZM642.754 154.816L642.658 162.784L621.538 162.88C619.81 162.88 618.562 163.296 617.794 164.128C617.09 164.96 616.738 166.08 616.738 167.488V169.792C616.738 171.392 617.186 172.64 618.082 173.536C618.978 174.368 620.418 174.784 622.402 174.784C624.066 174.784 625.858 174.432 627.778 173.728C629.762 173.024 631.714 172.032 633.634 170.752C635.554 169.472 637.25 167.968 638.722 166.24V172.384C638.146 173.344 637.282 174.56 636.13 176.032C635.042 177.44 633.634 178.848 631.906 180.256C630.178 181.6 628.162 182.752 625.858 183.712C623.554 184.672 620.93 185.152 617.986 185.152C615.106 185.152 612.514 184.64 610.21 183.616C607.906 182.592 606.082 181.088 604.738 179.104C603.394 177.12 602.722 174.656 602.722 171.712V166.816C602.722 163.04 604.002 160.096 606.562 157.984C609.122 155.872 612.642 154.816 617.122 154.816H642.754ZM696.718 135.328C700.046 135.328 703.246 135.808 706.318 136.768C709.454 137.728 712.206 139.296 714.574 141.472L713.614 148C711.438 147.36 709.486 146.784 707.758 146.272C706.03 145.76 704.014 145.504 701.71 145.504C699.726 145.504 698.126 145.856 696.91 146.56C695.694 147.264 694.798 148.64 694.222 150.688C693.646 152.736 693.358 155.776 693.358 159.808C693.358 163.584 693.614 166.464 694.126 168.448C694.702 170.368 695.566 171.712 696.718 172.48C697.934 173.184 699.47 173.536 701.326 173.536C702.99 173.536 704.43 173.376 705.646 173.056C706.862 172.672 708.078 172.128 709.294 171.424C710.51 170.656 711.886 169.728 713.422 168.64L714.478 175.648C712.558 178.336 710.062 180.608 706.99 182.464C703.918 184.256 700.142 185.152 695.662 185.152C689.582 185.152 685.23 182.976 682.606 178.624C680.046 174.272 678.766 168.032 678.766 159.904C678.766 153.568 679.406 148.64 680.686 145.12C682.03 141.536 684.046 139.008 686.734 137.536C689.422 136.064 692.75 135.328 696.718 135.328ZM726.19 116.8V184H714.958L713.518 175.264L711.982 174.208V143.104L712.558 141.856C712.366 139.872 712.206 137.888 712.078 135.904C712.014 133.856 711.982 131.776 711.982 129.664V116.8H726.19ZM760.24 135.328C768.24 135.328 773.968 136.704 777.424 139.456C780.944 142.144 782.704 146.176 782.704 151.552C782.768 155.904 781.68 159.168 779.44 161.344C777.2 163.456 773.328 164.512 767.824 164.512H741.328V156.544H763.888C766.064 156.544 767.44 156.096 768.016 155.2C768.656 154.24 768.976 152.928 768.976 151.264C768.912 149.024 768.24 147.488 766.96 146.656C765.744 145.76 763.664 145.312 760.72 145.312C758.096 145.312 756.048 145.664 754.576 146.368C753.104 147.072 752.08 148.416 751.504 150.4C750.928 152.384 750.64 155.264 750.64 159.04C750.64 163.008 750.992 166.08 751.696 168.256C752.4 170.368 753.584 171.84 755.248 172.672C756.976 173.504 759.344 173.92 762.352 173.92C764.528 173.92 767.216 173.856 770.416 173.728C773.68 173.536 776.944 173.248 780.208 172.864L781.552 181.6C779.696 182.496 777.584 183.2 775.216 183.712C772.848 184.224 770.416 184.576 767.92 184.768C765.424 185.024 763.024 185.152 760.72 185.152C754.704 185.152 749.84 184.288 746.128 182.56C742.48 180.768 739.824 178.048 738.16 174.4C736.56 170.752 735.76 166.08 735.76 160.384C735.76 154.176 736.592 149.248 738.256 145.6C739.92 141.952 742.544 139.328 746.128 137.728C749.712 136.128 754.416 135.328 760.24 135.328ZM814.043 135.328C815.771 135.328 817.659 135.424 819.707 135.616C821.755 135.744 823.803 136.032 825.851 136.48C827.963 136.864 829.883 137.44 831.611 138.208L830.075 147.136C827.515 147.072 825.051 147.008 822.683 146.944C820.379 146.88 818.299 146.848 816.443 146.848C813.563 146.848 811.291 147.232 809.627 148C807.963 148.768 806.747 150.144 805.979 152.128C805.275 154.048 804.923 156.736 804.923 160.192C804.923 163.712 805.275 166.464 805.979 168.448C806.747 170.432 807.963 171.808 809.627 172.576C811.291 173.344 813.563 173.728 816.443 173.728C817.467 173.728 818.779 173.696 820.379 173.632C821.979 173.568 823.707 173.504 825.563 173.44C827.419 173.312 829.243 173.12 831.035 172.864L832.379 181.888C829.819 183.04 826.907 183.872 823.643 184.384C820.379 184.896 817.147 185.152 813.947 185.152C808.059 185.152 803.355 184.352 799.835 182.752C796.379 181.088 793.883 178.432 792.347 174.784C790.811 171.136 790.043 166.272 790.043 160.192C790.043 154.112 790.811 149.248 792.347 145.6C793.947 141.952 796.507 139.328 800.027 137.728C803.547 136.128 808.219 135.328 814.043 135.328ZM865.863 135.328C869.831 135.328 873.191 135.872 875.943 136.96C878.695 137.984 880.775 139.776 882.183 142.336C883.655 144.832 884.391 148.288 884.391 152.704V184H873.063L871.047 173.728L870.087 172.288V152.608C870.087 150.368 869.543 148.736 868.455 147.712C867.431 146.688 865.447 146.176 862.503 146.176C860.071 146.176 857.031 146.272 853.383 146.464C849.735 146.592 845.991 146.784 842.151 147.04L840.807 137.632C843.111 137.184 845.767 136.8 848.775 136.48C851.783 136.16 854.791 135.904 857.799 135.712C860.807 135.456 863.495 135.328 865.863 135.328ZM878.535 154.816L878.439 162.784L857.319 162.88C855.591 162.88 854.343 163.296 853.575 164.128C852.871 164.96 852.519 166.08 852.519 167.488V169.792C852.519 171.392 852.967 172.64 853.863 173.536C854.759 174.368 856.199 174.784 858.183 174.784C859.847 174.784 861.639 174.432 863.559 173.728C865.543 173.024 867.495 172.032 869.415 170.752C871.335 169.472 873.031 167.968 874.503 166.24V172.384C873.927 173.344 873.063 174.56 871.911 176.032C870.823 177.44 869.415 178.848 867.687 180.256C865.959 181.6 863.943 182.752 861.639 183.712C859.335 184.672 856.711 185.152 853.767 185.152C850.887 185.152 848.295 184.64 845.991 183.616C843.687 182.592 841.863 181.088 840.519 179.104C839.175 177.12 838.503 174.656 838.503 171.712V166.816C838.503 163.04 839.783 160.096 842.343 157.984C844.903 155.872 848.423 154.816 852.903 154.816H878.535ZM911.781 135.328C915.109 135.328 918.309 135.808 921.381 136.768C924.517 137.728 927.269 139.296 929.637 141.472L928.677 148C926.501 147.36 924.549 146.784 922.821 146.272C921.093 145.76 919.077 145.504 916.773 145.504C914.789 145.504 913.189 145.856 911.973 146.56C910.757 147.264 909.861 148.64 909.285 150.688C908.709 152.736 908.421 155.776 908.421 159.808C908.421 163.584 908.677 166.464 909.189 168.448C909.765 170.368 910.629 171.712 911.781 172.48C912.997 173.184 914.533 173.536 916.389 173.536C918.053 173.536 919.493 173.376 920.709 173.056C921.925 172.672 923.141 172.128 924.357 171.424C925.573 170.656 926.949 169.728 928.485 168.64L929.541 175.648C927.621 178.336 925.125 180.608 922.053 182.464C918.981 184.256 915.205 185.152 910.725 185.152C904.645 185.152 900.293 182.976 897.669 178.624C895.109 174.272 893.829 168.032 893.829 159.904C893.829 153.568 894.469 148.64 895.749 145.12C897.093 141.536 899.109 139.008 901.797 137.536C904.485 136.064 907.813 135.328 911.781 135.328ZM941.253 116.8V184H930.021L928.581 175.264L927.045 174.208V143.104L927.621 141.856C927.429 139.872 927.269 137.888 927.141 135.904C927.077 133.856 927.045 131.776 927.045 129.664V116.8H941.253ZM975.302 135.328C983.302 135.328 989.03 136.704 992.486 139.456C996.006 142.144 997.766 146.176 997.766 151.552C997.83 155.904 996.742 159.168 994.502 161.344C992.262 163.456 988.39 164.512 982.886 164.512H956.39V156.544H978.95C981.126 156.544 982.502 156.096 983.078 155.2C983.718 154.24 984.038 152.928 984.038 151.264C983.974 149.024 983.302 147.488 982.022 146.656C980.806 145.76 978.726 145.312 975.782 145.312C973.158 145.312 971.11 145.664 969.638 146.368C968.166 147.072 967.142 148.416 966.566 150.4C965.99 152.384 965.702 155.264 965.702 159.04C965.702 163.008 966.054 166.08 966.758 168.256C967.462 170.368 968.646 171.84 970.31 172.672C972.038 173.504 974.406 173.92 977.414 173.92C979.59 173.92 982.278 173.856 985.478 173.728C988.742 173.536 992.006 173.248 995.27 172.864L996.614 181.6C994.758 182.496 992.646 183.2 990.278 183.712C987.91 184.224 985.478 184.576 982.982 184.768C980.486 185.024 978.086 185.152 975.782 185.152C969.766 185.152 964.902 184.288 961.19 182.56C957.542 180.768 954.886 178.048 953.222 174.4C951.622 170.752 950.822 166.08 950.822 160.384C950.822 154.176 951.654 149.248 953.318 145.6C954.982 141.952 957.606 139.328 961.19 137.728C964.774 136.128 969.478 135.328 975.302 135.328ZM1035.44 155.008V164.032H1006.83V155.008H1035.44ZM1069.34 135.328C1075.29 135.328 1080.06 136.16 1083.64 137.824C1087.22 139.424 1089.78 142.048 1091.32 145.696C1092.92 149.344 1093.72 154.24 1093.72 160.384C1093.72 166.4 1092.92 171.232 1091.32 174.88C1089.78 178.528 1087.22 181.152 1083.64 182.752C1080.06 184.352 1075.29 185.152 1069.34 185.152C1063.45 185.152 1058.68 184.352 1055.03 182.752C1051.45 181.152 1048.86 178.528 1047.26 174.88C1045.66 171.232 1044.86 166.4 1044.86 160.384C1044.86 154.24 1045.66 149.344 1047.26 145.696C1048.86 142.048 1051.45 139.424 1055.03 137.824C1058.68 136.16 1063.45 135.328 1069.34 135.328ZM1069.34 145.696C1066.9 145.696 1064.98 146.112 1063.58 146.944C1062.17 147.776 1061.18 149.248 1060.6 151.36C1060.02 153.472 1059.74 156.48 1059.74 160.384C1059.74 164.224 1060.02 167.2 1060.6 169.312C1061.18 171.424 1062.17 172.896 1063.58 173.728C1064.98 174.496 1066.9 174.88 1069.34 174.88C1071.77 174.88 1073.69 174.496 1075.1 173.728C1076.5 172.896 1077.5 171.424 1078.07 169.312C1078.65 167.2 1078.94 164.224 1078.94 160.384C1078.94 156.48 1078.65 153.472 1078.07 151.36C1077.5 149.248 1076.5 147.776 1075.1 146.944C1073.69 146.112 1071.77 145.696 1069.34 145.696ZM1117.7 116.8L1117.61 168.832C1117.61 170.432 1118.09 171.648 1119.05 172.48C1120.01 173.248 1121.42 173.632 1123.27 173.632H1127.11L1128.74 183.232C1127.98 183.616 1126.89 183.936 1125.48 184.192C1124.07 184.512 1122.63 184.736 1121.16 184.864C1119.69 185.056 1118.44 185.152 1117.42 185.152C1113.13 185.152 1109.74 184.032 1107.24 181.792C1104.74 179.552 1103.5 176.416 1103.5 172.384V116.8H1117.7ZM1151.12 135.328C1154.45 135.328 1157.65 135.808 1160.72 136.768C1163.86 137.728 1166.61 139.296 1168.98 141.472L1168.02 148C1165.84 147.36 1163.89 146.784 1162.16 146.272C1160.44 145.76 1158.42 145.504 1156.12 145.504C1154.13 145.504 1152.53 145.856 1151.32 146.56C1150.1 147.264 1149.2 148.64 1148.63 150.688C1148.05 152.736 1147.76 155.776 1147.76 159.808C1147.76 163.584 1148.02 166.464 1148.53 168.448C1149.11 170.368 1149.97 171.712 1151.12 172.48C1152.34 173.184 1153.88 173.536 1155.73 173.536C1157.4 173.536 1158.84 173.376 1160.05 173.056C1161.27 172.672 1162.48 172.128 1163.7 171.424C1164.92 170.656 1166.29 169.728 1167.83 168.64L1168.88 175.648C1166.96 178.336 1164.47 180.608 1161.4 182.464C1158.32 184.256 1154.55 185.152 1150.07 185.152C1143.99 185.152 1139.64 182.976 1137.01 178.624C1134.45 174.272 1133.17 168.032 1133.17 159.904C1133.17 153.568 1133.81 148.64 1135.09 145.12C1136.44 141.536 1138.45 139.008 1141.14 137.536C1143.83 136.064 1147.16 135.328 1151.12 135.328ZM1180.6 116.8V184H1169.36L1167.92 175.264L1166.39 174.208V143.104L1166.96 141.856C1166.77 139.872 1166.61 137.888 1166.48 135.904C1166.42 133.856 1166.39 131.776 1166.39 129.664V116.8H1180.6ZM121.417 235.328C123.721 235.328 126.217 235.424 128.905 235.616C131.593 235.744 134.217 235.936 136.777 236.192C139.337 236.448 141.609 236.768 143.593 237.152L142.633 245.984C139.561 245.92 136.457 245.888 133.321 245.888C130.249 245.824 127.241 245.792 124.297 245.792C121.801 245.728 119.881 245.76 118.537 245.888C117.193 246.016 116.233 246.336 115.657 246.848C115.145 247.296 114.889 248.128 114.889 249.344C114.889 250.752 115.369 251.712 116.329 252.224C117.289 252.672 118.889 253.184 121.129 253.76L133.513 256.736C137.481 257.76 140.425 259.296 142.345 261.344C144.265 263.328 145.225 266.336 145.225 270.368C145.225 274.336 144.489 277.376 143.017 279.488C141.545 281.6 139.209 283.072 136.009 283.904C132.809 284.672 128.681 285.056 123.625 285.056C121.641 285.056 118.697 284.96 114.793 284.768C110.889 284.576 106.601 284.096 101.929 283.328L102.889 274.496C104.041 274.56 105.513 274.624 107.305 274.688C109.097 274.688 111.049 274.688 113.161 274.688C115.273 274.688 117.385 274.688 119.497 274.688C122.761 274.688 125.257 274.624 126.985 274.496C128.713 274.304 129.897 273.92 130.537 273.344C131.177 272.768 131.497 271.904 131.497 270.752C131.497 269.344 130.953 268.384 129.865 267.872C128.777 267.36 127.049 266.816 124.681 266.24L112.681 263.264C109.673 262.432 107.337 261.376 105.673 260.096C104.009 258.816 102.825 257.248 102.121 255.392C101.481 253.536 101.161 251.328 101.161 248.768C101.161 245.504 101.801 242.912 103.081 240.992C104.425 239.008 106.569 237.568 109.513 236.672C112.521 235.776 116.489 235.328 121.417 235.328ZM168.865 236.576V284H154.753V236.576H168.865ZM164.929 215.648C167.745 215.648 169.153 217.088 169.153 219.968V225.056C169.153 227.936 167.745 229.376 164.929 229.376H158.785C155.969 229.376 154.561 227.936 154.561 225.056V219.968C154.561 217.088 155.969 215.648 158.785 215.648H164.929ZM199.429 223.424V268.832C199.429 270.56 199.813 271.808 200.581 272.576C201.413 273.28 202.757 273.632 204.613 273.632H210.757L212.293 283.232C211.141 283.616 209.733 283.936 208.069 284.192C206.405 284.512 204.741 284.736 203.077 284.864C201.413 285.056 200.005 285.152 198.853 285.152C194.565 285.152 191.205 284 188.773 281.696C186.405 279.392 185.221 276.16 185.221 272L185.125 223.424H199.429ZM212.677 236.576V245.888H176.869V237.056L186.085 236.576H212.677ZM242.74 235.328C250.74 235.328 256.468 236.704 259.924 239.456C263.444 242.144 265.204 246.176 265.204 251.552C265.268 255.904 264.18 259.168 261.94 261.344C259.7 263.456 255.828 264.512 250.324 264.512H223.828V256.544H246.388C248.564 256.544 249.94 256.096 250.516 255.2C251.156 254.24 251.476 252.928 251.476 251.264C251.412 249.024 250.74 247.488 249.46 246.656C248.244 245.76 246.164 245.312 243.22 245.312C240.596 245.312 238.548 245.664 237.076 246.368C235.604 247.072 234.58 248.416 234.004 250.4C233.428 252.384 233.14 255.264 233.14 259.04C233.14 263.008 233.492 266.08 234.196 268.256C234.9 270.368 236.084 271.84 237.748 272.672C239.476 273.504 241.844 273.92 244.852 273.92C247.028 273.92 249.716 273.856 252.916 273.728C256.18 273.536 259.444 273.248 262.708 272.864L264.052 281.6C262.196 282.496 260.084 283.2 257.716 283.712C255.348 284.224 252.916 284.576 250.42 284.768C247.924 285.024 245.524 285.152 243.22 285.152C237.204 285.152 232.34 284.288 228.628 282.56C224.98 280.768 222.324 278.048 220.66 274.4C219.06 270.752 218.26 266.08 218.26 260.384C218.26 254.176 219.092 249.248 220.756 245.6C222.42 241.952 225.044 239.328 228.628 237.728C232.212 236.128 236.916 235.328 242.74 235.328Z" fill="black"/>
<path d="M313.648 214.784C314.8 214.784 316.304 214.816 318.16 214.88C320.08 214.944 322 215.072 323.92 215.264C325.904 215.392 327.6 215.584 329.008 215.84L327.76 224.96H318.736C316.304 224.96 314.608 225.44 313.648 226.4C312.688 227.36 312.208 229.024 312.208 231.392V284H298V229.568C298 226.56 298.48 223.968 299.44 221.792C300.464 219.616 302.128 217.92 304.432 216.704C306.736 215.424 309.808 214.784 313.648 214.784ZM325.456 236.576V245.888H289.744V237.056L298.288 236.576H325.456ZM343.724 236.576L345.452 245.984L346.796 247.232V284H332.588V236.576H343.724ZM366.86 235.328L365.516 248.48H361.58C359.34 248.48 357.004 248.8 354.572 249.44C352.14 250.08 349.068 251.04 345.356 252.32L344.396 244.352C347.724 241.408 351.084 239.168 354.476 237.632C357.868 236.096 361.164 235.328 364.364 235.328H366.86ZM395.367 235.328C401.319 235.328 406.087 236.16 409.671 237.824C413.255 239.424 415.815 242.048 417.351 245.696C418.951 249.344 419.751 254.24 419.751 260.384C419.751 266.4 418.951 271.232 417.351 274.88C415.815 278.528 413.255 281.152 409.671 282.752C406.087 284.352 401.319 285.152 395.367 285.152C389.479 285.152 384.711 284.352 381.063 282.752C377.479 281.152 374.887 278.528 373.287 274.88C371.687 271.232 370.887 266.4 370.887 260.384C370.887 254.24 371.687 249.344 373.287 245.696C374.887 242.048 377.479 239.424 381.063 237.824C384.711 236.16 389.479 235.328 395.367 235.328ZM395.367 245.696C392.935 245.696 391.015 246.112 389.607 246.944C388.199 247.776 387.207 249.248 386.631 251.36C386.055 253.472 385.767 256.48 385.767 260.384C385.767 264.224 386.055 267.2 386.631 269.312C387.207 271.424 388.199 272.896 389.607 273.728C391.015 274.496 392.935 274.88 395.367 274.88C397.799 274.88 399.719 274.496 401.127 273.728C402.535 272.896 403.527 271.424 404.103 269.312C404.679 267.2 404.967 264.224 404.967 260.384C404.967 256.48 404.679 253.472 404.103 251.36C403.527 249.248 402.535 247.776 401.127 246.944C399.719 246.112 397.799 245.696 395.367 245.696ZM489.528 235.328C493.816 235.328 497.08 236.448 499.32 238.688C501.56 240.928 502.68 244.192 502.68 248.48V284H488.568V252.896C488.568 250.912 488.184 249.504 487.416 248.672C486.648 247.776 485.304 247.328 483.384 247.328C482.232 247.328 481.144 247.488 480.12 247.808C479.096 248.128 477.912 248.64 476.568 249.344C475.224 250.048 473.592 251.008 471.672 252.224L470.904 244.352C473.976 241.344 476.984 239.104 479.928 237.632C482.936 236.096 486.136 235.328 489.528 235.328ZM440.76 236.576L442.2 245.984L443.64 247.232V284H429.432V236.576H440.76ZM459.96 235.328C464.184 235.328 467.384 236.448 469.56 238.688C471.8 240.864 472.92 244.128 472.92 248.48V284H459.288V252.896C459.288 250.848 458.84 249.408 457.944 248.576C457.112 247.744 455.8 247.328 454.008 247.328C452.92 247.328 451.832 247.488 450.744 247.808C449.72 248.064 448.504 248.544 447.096 249.248C445.752 249.952 444.088 250.944 442.104 252.224L441.24 244.352C444.376 241.344 447.416 239.104 450.36 237.632C453.304 236.096 456.504 235.328 459.96 235.328ZM551.647 223.424V268.832C551.647 270.56 552.031 271.808 552.799 272.576C553.631 273.28 554.975 273.632 556.831 273.632H562.975L564.511 283.232C563.359 283.616 561.951 283.936 560.287 284.192C558.623 284.512 556.959 284.736 555.295 284.864C553.631 285.056 552.223 285.152 551.071 285.152C546.783 285.152 543.423 284 540.991 281.696C538.623 279.392 537.439 276.16 537.439 272L537.343 223.424H551.647ZM564.895 236.576V245.888H529.087V237.056L538.303 236.576H564.895ZM605.518 235.328C614.478 235.328 618.958 239.712 618.958 248.48V284H604.654V252.896C604.654 250.784 604.27 249.344 603.502 248.576C602.798 247.744 601.518 247.328 599.662 247.328C597.614 247.328 595.502 247.712 593.326 248.48C591.15 249.248 588.462 250.496 585.262 252.224L584.014 244.832C587.534 241.76 591.118 239.424 594.766 237.824C598.414 236.16 601.998 235.328 605.518 235.328ZM586.702 216.8L586.798 233.216C586.798 235.712 586.638 238.08 586.318 240.32C586.062 242.56 585.742 244.448 585.358 245.984L586.702 247.232V284H572.494V216.8H586.702ZM652.615 235.328C660.615 235.328 666.343 236.704 669.799 239.456C673.319 242.144 675.079 246.176 675.079 251.552C675.143 255.904 674.055 259.168 671.815 261.344C669.575 263.456 665.703 264.512 660.199 264.512H633.703V256.544H656.263C658.439 256.544 659.815 256.096 660.391 255.2C661.031 254.24 661.351 252.928 661.351 251.264C661.287 249.024 660.615 247.488 659.335 246.656C658.119 245.76 656.039 245.312 653.095 245.312C650.471 245.312 648.423 245.664 646.951 246.368C645.479 247.072 644.455 248.416 643.879 250.4C643.303 252.384 643.015 255.264 643.015 259.04C643.015 263.008 643.367 266.08 644.071 268.256C644.775 270.368 645.959 271.84 647.623 272.672C649.351 273.504 651.719 273.92 654.727 273.92C656.903 273.92 659.591 273.856 662.791 273.728C666.055 273.536 669.319 273.248 672.583 272.864L673.927 281.6C672.071 282.496 669.959 283.2 667.591 283.712C665.223 284.224 662.791 284.576 660.295 284.768C657.799 285.024 655.399 285.152 653.095 285.152C647.079 285.152 642.215 284.288 638.503 282.56C634.855 280.768 632.199 278.048 630.535 274.4C628.935 270.752 628.135 266.08 628.135 260.384C628.135 254.176 628.967 249.248 630.631 245.6C632.295 241.952 634.919 239.328 638.503 237.728C642.087 236.128 646.791 235.328 652.615 235.328ZM726.177 235.328C731.681 235.328 736.033 235.84 739.233 236.864C742.497 237.888 744.833 239.488 746.241 241.664C747.713 243.84 748.449 246.752 748.449 250.4C748.449 253.92 747.745 256.8 746.337 259.04C744.929 261.216 742.561 262.816 739.233 263.84C735.969 264.864 731.585 265.376 726.081 265.376C720.577 265.376 716.161 264.864 712.833 263.84C709.569 262.816 707.201 261.216 705.729 259.04C704.321 256.864 703.617 253.984 703.617 250.4C703.617 246.816 704.321 243.936 705.729 241.76C707.201 239.52 709.601 237.888 712.929 236.864C716.257 235.84 720.673 235.328 726.177 235.328ZM726.081 244.064C722.561 244.064 720.129 244.544 718.785 245.504C717.441 246.4 716.769 248.032 716.769 250.4C716.769 252.768 717.441 254.432 718.785 255.392C720.129 256.352 722.561 256.832 726.081 256.832C729.601 256.832 732.001 256.352 733.281 255.392C734.561 254.432 735.201 252.768 735.201 250.4C735.201 248.032 734.561 246.4 733.281 245.504C732.001 244.544 729.601 244.064 726.081 244.064ZM753.921 236.576L753.153 242.624L740.481 244.256L737.025 236.576H753.921ZM711.777 262.496L718.881 263.744C717.985 264.256 717.345 265.056 716.961 266.144C716.641 267.232 716.737 268.256 717.249 269.216C717.761 270.176 718.881 270.752 720.609 270.944L738.081 272.96C743.073 273.472 746.593 274.88 748.641 277.184C750.689 279.424 751.713 282.72 751.713 287.072C751.713 291.168 750.881 294.304 749.217 296.48C747.553 298.72 744.897 300.256 741.249 301.088C737.601 301.92 732.737 302.336 726.657 302.336C721.665 302.336 717.537 302.08 714.273 301.568C711.073 301.12 708.513 300.352 706.593 299.264C704.737 298.176 703.425 296.736 702.657 294.944C701.953 293.216 701.601 291.04 701.601 288.416C701.601 286.432 701.953 284.736 702.657 283.328C703.361 281.856 704.545 280.544 706.209 279.392C707.937 278.24 710.337 277.184 713.409 276.224L720.417 273.728L725.505 275.744L721.665 278.24C720.065 279.392 718.753 280.384 717.729 281.216C716.769 281.984 716.065 282.752 715.617 283.52C715.233 284.288 715.041 285.312 715.041 286.592C715.041 288.064 715.361 289.184 716.001 289.952C716.641 290.784 717.793 291.328 719.457 291.584C721.185 291.904 723.521 292.064 726.465 292.064C729.537 292.064 731.937 291.904 733.665 291.584C735.393 291.328 736.577 290.816 737.217 290.048C737.921 289.28 738.273 288.192 738.273 286.784C738.273 285.568 738.017 284.672 737.505 284.096C737.057 283.52 736.257 283.104 735.105 282.848C734.017 282.528 732.481 282.24 730.497 281.984L715.617 280.352C713.121 280.096 711.169 279.424 709.761 278.336C708.353 277.248 707.361 275.936 706.785 274.4C706.273 272.8 706.145 271.2 706.401 269.6C706.657 268 707.233 266.56 708.129 265.28C709.089 264 710.305 263.072 711.777 262.496ZM771.974 236.576L773.702 245.984L775.046 247.232V284H760.838V236.576H771.974ZM795.11 235.328L793.766 248.48H789.83C787.59 248.48 785.254 248.8 782.822 249.44C780.39 250.08 777.318 251.04 773.606 252.32L772.646 244.352C775.974 241.408 779.334 239.168 782.726 237.632C786.118 236.096 789.414 235.328 792.614 235.328H795.11ZM823.617 235.328C829.569 235.328 834.337 236.16 837.921 237.824C841.505 239.424 844.065 242.048 845.601 245.696C847.201 249.344 848.001 254.24 848.001 260.384C848.001 266.4 847.201 271.232 845.601 274.88C844.065 278.528 841.505 281.152 837.921 282.752C834.337 284.352 829.569 285.152 823.617 285.152C817.729 285.152 812.961 284.352 809.313 282.752C805.729 281.152 803.137 278.528 801.537 274.88C799.937 271.232 799.137 266.4 799.137 260.384C799.137 254.24 799.937 249.344 801.537 245.696C803.137 242.048 805.729 239.424 809.313 237.824C812.961 236.16 817.729 235.328 823.617 235.328ZM823.617 245.696C821.185 245.696 819.265 246.112 817.857 246.944C816.449 247.776 815.457 249.248 814.881 251.36C814.305 253.472 814.017 256.48 814.017 260.384C814.017 264.224 814.305 267.2 814.881 269.312C815.457 271.424 816.449 272.896 817.857 273.728C819.265 274.496 821.185 274.88 823.617 274.88C826.049 274.88 827.969 274.496 829.377 273.728C830.785 272.896 831.777 271.424 832.353 269.312C832.929 267.2 833.217 264.224 833.217 260.384C833.217 256.48 832.929 253.472 832.353 251.36C831.777 249.248 830.785 247.776 829.377 246.944C827.969 246.112 826.049 245.696 823.617 245.696ZM871.602 236.576V267.776C871.602 269.76 872.018 271.168 872.85 272C873.746 272.832 875.154 273.248 877.074 273.248C879.058 273.248 881.01 272.896 882.93 272.192C884.914 271.424 887.346 270.24 890.226 268.64L891.378 276.416C887.922 279.424 884.53 281.664 881.202 283.136C877.874 284.608 874.45 285.344 870.93 285.344C861.906 285.344 857.394 280.928 857.394 272.096V236.576H871.602ZM902.994 236.576V284H891.762L890.13 274.688L888.786 273.344V236.576H902.994ZM947.612 235.328C956.572 235.328 961.052 239.712 961.052 248.48V284H946.844V252.896C946.844 250.784 946.46 249.344 945.692 248.576C944.924 247.744 943.612 247.328 941.756 247.328C939.708 247.328 937.596 247.744 935.42 248.576C933.244 249.344 930.556 250.56 927.356 252.224L926.684 244.256C930.076 241.376 933.532 239.168 937.052 237.632C940.636 236.096 944.156 235.328 947.612 235.328ZM926.012 236.576L927.644 245.984L928.796 247.232V284H914.588V236.576H926.012ZM988.468 235.328C991.796 235.328 994.996 235.808 998.068 236.768C1001.2 237.728 1003.96 239.296 1006.32 241.472L1005.36 248C1003.19 247.36 1001.24 246.784 999.508 246.272C997.78 245.76 995.764 245.504 993.46 245.504C991.476 245.504 989.876 245.856 988.66 246.56C987.444 247.264 986.548 248.64 985.972 250.688C985.396 252.736 985.108 255.776 985.108 259.808C985.108 263.584 985.364 266.464 985.876 268.448C986.452 270.368 987.316 271.712 988.468 272.48C989.684 273.184 991.22 273.536 993.076 273.536C994.74 273.536 996.18 273.376 997.396 273.056C998.612 272.672 999.828 272.128 1001.04 271.424C1002.26 270.656 1003.64 269.728 1005.17 268.64L1006.23 275.648C1004.31 278.336 1001.81 280.608 998.74 282.464C995.668 284.256 991.892 285.152 987.412 285.152C981.332 285.152 976.98 282.976 974.356 278.624C971.796 274.272 970.516 268.032 970.516 259.904C970.516 253.568 971.156 248.64 972.436 245.12C973.78 241.536 975.796 239.008 978.484 237.536C981.172 236.064 984.5 235.328 988.468 235.328ZM1017.94 216.8V284H1006.71L1005.27 275.264L1003.73 274.208V243.104L1004.31 241.856C1004.12 239.872 1003.96 237.888 1003.83 235.904C1003.76 233.856 1003.73 231.776 1003.73 229.664V216.8H1017.94ZM1064.16 236.576V267.776C1064.16 269.76 1064.58 271.168 1065.41 272C1066.31 272.832 1067.72 273.248 1069.64 273.248C1071.62 273.248 1073.57 272.896 1075.49 272.192C1077.48 271.424 1079.91 270.24 1082.79 268.64L1083.94 276.416C1080.48 279.424 1077.09 281.664 1073.76 283.136C1070.44 284.608 1067.01 285.344 1063.49 285.344C1054.47 285.344 1049.96 280.928 1049.96 272.096V236.576H1064.16ZM1095.56 236.576V284H1084.32L1082.69 274.688L1081.35 273.344V236.576H1095.56ZM1138.35 235.424C1144.3 235.424 1148.56 237.6 1151.12 241.952C1153.68 246.304 1154.96 252.544 1154.96 260.672C1154.96 267.008 1154.29 271.968 1152.94 275.552C1151.66 279.136 1149.68 281.664 1146.99 283.136C1144.37 284.544 1141.07 285.248 1137.1 285.248C1133.71 285.248 1130.48 284.768 1127.41 283.808C1124.33 282.848 1121.61 281.248 1119.25 279.008L1120.21 272.672C1122.32 273.312 1124.24 273.888 1125.97 274.4C1127.76 274.848 1129.77 275.072 1132.01 275.072C1134.06 275.072 1135.69 274.72 1136.91 274.016C1138.13 273.312 1138.99 271.936 1139.5 269.888C1140.08 267.776 1140.37 264.736 1140.37 260.768C1140.37 256.864 1140.11 253.888 1139.6 251.84C1139.09 249.728 1138.25 248.288 1137.1 247.52C1135.95 246.688 1134.45 246.272 1132.59 246.272C1130.54 246.272 1128.65 246.688 1126.93 247.52C1125.2 248.288 1123.25 249.408 1121.07 250.88L1119.25 244.352C1120.53 242.624 1122.16 241.088 1124.14 239.744C1126.19 238.4 1128.43 237.344 1130.86 236.576C1133.29 235.808 1135.79 235.424 1138.35 235.424ZM1118.67 236.576L1120.01 245.216L1121.36 246.656V277.472L1120.88 278.624C1121.07 280.544 1121.2 282.528 1121.26 284.576C1121.39 286.688 1121.42 288.768 1121.36 290.816V302.24H1107.15V236.576H1118.67ZM1172.49 269.408C1174.35 269.408 1175.63 269.792 1176.33 270.56C1177.1 271.264 1177.48 272.544 1177.48 274.4V279.008C1177.48 280.864 1177.1 282.176 1176.33 282.944C1175.63 283.648 1174.35 284 1172.49 284H1168.84C1166.99 284 1165.67 283.648 1164.91 282.944C1164.2 282.176 1163.85 280.864 1163.85 279.008V274.4C1163.85 272.544 1164.2 271.264 1164.91 270.56C1165.67 269.792 1166.99 269.408 1168.84 269.408H1172.49Z" fill="#4E9934"/>
</g>
<defs>
<filter id="filter0_ng_62_51" x="100.152" y="115.598" width="1080.49" height="186.788" filterUnits="userSpaceOnUse" color-interpolation-filters="sRGB">
<feFlood flood-opacity="0" result="BackgroundImageFix"/>
<feBlend mode="normal" in="SourceGraphic" in2="BackgroundImageFix" result="shape"/>
<feTurbulence type="fractalNoise" baseFrequency="0.40000000596046448 0.40000000596046448" stitchTiles="stitch" numOctaves="3" result="noise" seed="5111" />
<feColorMatrix in="noise" type="luminanceToAlpha" result="alphaNoise" />
<feComponentTransfer in="alphaNoise" result="coloredNoise1">
<feFuncA type="discrete" tableValues="0 0 0 0 0 0 1 1 1 1 1 1 1 1 1 1 1 1 1 1 1 1 1 1 1 1 1 1 1 1 1 1 1 1 1 1 1 1 1 1 1 1 1 0 0 0 0 0 0 0 0 0 0 0 0 0 0 0 0 0 0 0 0 0 0 0 0 0 0 0 0 0 0 0 0 0 0 0 0 0 0 0 0 0 0 0 0 0 0 0 0 0 0 0 0 0 0 0 0 0 "/>
</feComponentTransfer>
<feComposite operator="in" in2="shape" in="coloredNoise1" result="noise1Clipped" />
<feFlood flood-color="rgba(249, 246, 221, 0.16)" result="color1Flood" />
<feComposite operator="in" in2="noise1Clipped" in="color1Flood" result="color1" />
<feMerge result="effect1_noise_62_51">
<feMergeNode in="shape" />
<feMergeNode in="color1" />
</feMerge>
<feTurbulence type="fractalNoise" baseFrequency="200 200" numOctaves="3" seed="5278" />
<feDisplacementMap in="effect1_noise_62_51" scale="0" xChannelSelector="R" yChannelSelector="G" result="displacedImage" width="100%" height="100%" />
<feMerge result="effect2_texture_62_51">
<feMergeNode in="displacedImage"/>
</feMerge>
</filter>
</defs>
</svg>
