<svg width="289" height="190" viewBox="0 0 289 190" fill="none" xmlns="http://www.w3.org/2000/svg">
<g filter="url(#filter0_ng_62_46)">
<path d="M20.4369 1.57602C23.3489 1.57602 25.7009 1.88002 27.4929 2.48802C29.3169 3.06402 30.6449 4.07202 31.4769 5.51202C32.3409 6.92002 32.7729 8.88802 32.7729 11.416C32.7729 12.952 32.5649 14.312 32.1489 15.496C31.7649 16.648 31.1089 17.576 30.1809 18.28C29.2529 18.984 27.9889 19.432 26.3889 19.624V19.864C26.9649 19.96 27.5569 20.184 28.1649 20.536C28.8049 20.888 29.3969 21.416 29.9409 22.12C30.4849 22.792 30.8849 23.704 31.1409 24.856L34.0209 35.176H26.2929L23.7489 25.096C23.4609 24.008 23.0289 23.256 22.4529 22.84C21.9089 22.424 21.1409 22.216 20.1489 22.216C17.9729 22.216 16.1329 22.216 14.6289 22.216C13.1569 22.184 11.9089 22.152 10.8849 22.12C9.89293 22.088 8.99693 22.056 8.19693 22.024L8.34093 16.696H20.2929C21.5729 16.696 22.5809 16.568 23.3169 16.312C24.0849 16.024 24.6129 15.528 24.9009 14.824C25.2209 14.12 25.3809 13.144 25.3809 11.896C25.3809 10.616 25.2209 9.64002 24.9009 8.96803C24.6129 8.26402 24.0849 7.78402 23.3169 7.52802C22.5809 7.24002 21.5729 7.09602 20.2929 7.09602C17.2849 7.09602 14.7409 7.11202 12.6609 7.14402C10.5809 7.17602 9.15693 7.22402 8.38893 7.28802L7.66893 2.05602C9.01293 1.89602 10.2769 1.78402 11.4609 1.72002C12.6449 1.65602 13.9409 1.62402 15.3489 1.62402C16.7569 1.59202 18.4529 1.57602 20.4369 1.57602ZM14.9169 2.05602V35.176H7.66893V2.05602H14.9169ZM49.2658 10.84C53.2658 10.84 56.1298 11.528 57.8578 12.904C59.6178 14.248 60.4978 16.264 60.4978 18.952C60.5298 21.128 59.9858 22.76 58.8658 23.848C57.7458 24.904 55.8098 25.432 53.0578 25.432H39.8098V21.448H51.0898C52.1778 21.448 52.8658 21.224 53.1538 20.776C53.4738 20.296 53.6338 19.64 53.6338 18.808C53.6018 17.688 53.2658 16.92 52.6258 16.504C52.0178 16.056 50.9778 15.832 49.5058 15.832C48.1938 15.832 47.1698 16.008 46.4338 16.36C45.6978 16.712 45.1858 17.384 44.8978 18.376C44.6098 19.368 44.4658 20.808 44.4658 22.696C44.4658 24.68 44.6418 26.216 44.9938 27.304C45.3458 28.36 45.9378 29.096 46.7698 29.512C47.6338 29.928 48.8178 30.136 50.3218 30.136C51.4098 30.136 52.7538 30.104 54.3538 30.04C55.9858 29.944 57.6178 29.8 59.2498 29.608L59.9218 33.976C58.9938 34.424 57.9378 34.776 56.7538 35.032C55.5698 35.288 54.3538 35.464 53.1058 35.56C51.8578 35.688 50.6578 35.752 49.5058 35.752C46.4978 35.752 44.0658 35.32 42.2098 34.456C40.3858 33.56 39.0578 32.2 38.2258 30.376C37.4258 28.552 37.0258 26.216 37.0258 23.368C37.0258 20.264 37.4418 17.8 38.2738 15.976C39.1058 14.152 40.4178 12.84 42.2098 12.04C44.0018 11.24 46.3538 10.84 49.2658 10.84ZM80.0556 10.84C83.1916 10.84 85.4316 11.8 86.7756 13.72C88.1516 15.608 88.8396 18.744 88.8396 23.128C88.8396 24.952 88.6636 26.632 88.3116 28.168C87.9916 29.704 87.3996 31.048 86.5356 32.2C85.7036 33.32 84.5356 34.2 83.0316 34.84C81.5276 35.448 79.5756 35.752 77.1756 35.752C76.3436 35.752 75.3836 35.704 74.2956 35.608C73.2076 35.544 72.0876 35.432 70.9356 35.272C69.8156 35.144 68.7436 34.968 67.7196 34.744C66.6956 34.488 65.8156 34.2 65.0796 33.88L70.7436 29.8C71.3516 29.992 72.0236 30.168 72.7596 30.328C73.4956 30.456 74.2476 30.552 75.0156 30.616C75.7836 30.648 76.4556 30.648 77.0316 30.616C78.1196 30.584 78.9836 30.36 79.6236 29.944C80.2956 29.496 80.7756 28.744 81.0636 27.688C81.3516 26.6 81.4956 25.096 81.4956 23.176C81.4956 21.416 81.3676 20.056 81.1116 19.096C80.8876 18.104 80.4556 17.416 79.8156 17.032C79.2076 16.616 78.3436 16.408 77.2236 16.408C76.1676 16.408 75.2076 16.632 74.3436 17.08C73.4796 17.528 72.5196 18.12 71.4636 18.856L70.9356 15.496C71.7676 14.6 72.6636 13.8 73.6236 13.096C74.5836 12.392 75.6076 11.848 76.6956 11.464C77.7836 11.048 78.9036 10.84 80.0556 10.84ZM72.1836 1.57602L72.2316 9.25602C72.2316 10.344 72.1676 11.4 72.0396 12.424C71.9436 13.416 71.7516 14.392 71.4636 15.352L72.1356 15.976L72.1836 34.216L65.0796 33.88V1.57602H72.1836ZM100.588 11.464V27.064C100.588 28.056 100.796 28.76 101.212 29.176C101.66 29.592 102.364 29.8 103.324 29.8C104.316 29.8 105.292 29.624 106.252 29.272C107.244 28.888 108.46 28.296 109.9 27.496L110.476 31.384C108.748 32.888 107.052 34.008 105.388 34.744C103.724 35.48 102.012 35.848 100.252 35.848C95.7396 35.848 93.4836 33.64 93.4836 29.224V11.464H100.588ZM116.284 11.464V35.176H110.668L109.852 30.52L109.18 29.848V11.464H116.284ZM129.329 11.464V35.176H122.273V11.464H129.329ZM127.361 1.00002C128.769 1.00002 129.473 1.72002 129.473 3.16002V5.70402C129.473 7.14402 128.769 7.86403 127.361 7.86403H124.289C122.881 7.86403 122.177 7.14402 122.177 5.70402V3.16002C122.177 1.72002 122.881 1.00002 124.289 1.00002H127.361ZM142.498 1.57602L142.45 27.592C142.45 28.392 142.69 29 143.17 29.416C143.65 29.8 144.354 29.992 145.282 29.992H147.202L148.018 34.792C147.634 34.984 147.09 35.144 146.386 35.272C145.682 35.432 144.962 35.544 144.226 35.608C143.49 35.704 142.866 35.752 142.354 35.752C140.21 35.752 138.514 35.192 137.266 34.072C136.018 32.952 135.394 31.384 135.394 29.368V1.57602H142.498ZM159.208 10.84C160.872 10.84 162.472 11.08 164.008 11.56C165.576 12.04 166.952 12.824 168.136 13.912L167.656 17.176C166.568 16.856 165.592 16.568 164.728 16.312C163.864 16.056 162.856 15.928 161.704 15.928C160.712 15.928 159.912 16.104 159.304 16.456C158.696 16.808 158.248 17.496 157.96 18.52C157.672 19.544 157.528 21.064 157.528 23.08C157.528 24.968 157.656 26.408 157.912 27.4C158.2 28.36 158.632 29.032 159.208 29.416C159.816 29.768 160.584 29.944 161.512 29.944C162.344 29.944 163.064 29.864 163.672 29.704C164.28 29.512 164.888 29.24 165.496 28.888C166.104 28.504 166.792 28.04 167.56 27.496L168.088 31C167.128 32.344 165.88 33.48 164.344 34.408C162.808 35.304 160.92 35.752 158.68 35.752C155.64 35.752 153.464 34.664 152.152 32.488C150.872 30.312 150.232 27.192 150.232 23.128C150.232 19.96 150.552 17.496 151.192 15.736C151.864 13.944 152.872 12.68 154.216 11.944C155.56 11.208 157.224 10.84 159.208 10.84ZM173.944 1.57602V35.176H168.328L167.608 30.808L166.84 30.28V14.728L167.128 14.104C167.032 13.112 166.952 12.12 166.888 11.128C166.856 10.104 166.84 9.06402 166.84 8.00802V1.57602H173.944ZM186.985 11.464V35.176H179.929V11.464H186.985ZM185.017 1.00002C186.425 1.00002 187.129 1.72002 187.129 3.16002V5.70402C187.129 7.14402 186.425 7.86403 185.017 7.86403H181.945C180.537 7.86403 179.833 7.14402 179.833 5.70402V3.16002C179.833 1.72002 180.537 1.00002 181.945 1.00002H185.017ZM209.515 10.84C213.995 10.84 216.235 13.032 216.235 17.416V35.176H209.131V19.624C209.131 18.568 208.939 17.848 208.555 17.464C208.171 17.048 207.515 16.84 206.587 16.84C205.563 16.84 204.507 17.048 203.419 17.464C202.331 17.848 200.987 18.456 199.387 19.288L199.051 15.304C200.747 13.864 202.475 12.76 204.235 11.992C206.027 11.224 207.787 10.84 209.515 10.84ZM198.715 11.464L199.531 16.168L200.107 16.792V35.176H193.003V11.464H198.715ZM232.391 10.84C235.143 10.84 237.319 11.096 238.919 11.608C240.551 12.12 241.719 12.92 242.423 14.008C243.159 15.096 243.527 16.552 243.527 18.376C243.527 20.136 243.175 21.576 242.471 22.696C241.767 23.784 240.583 24.584 238.919 25.096C237.287 25.608 235.095 25.864 232.343 25.864C229.591 25.864 227.383 25.608 225.719 25.096C224.087 24.584 222.903 23.784 222.167 22.696C221.463 21.608 221.111 20.168 221.111 18.376C221.111 16.584 221.463 15.144 222.167 14.056C222.903 12.936 224.103 12.12 225.767 11.608C227.431 11.096 229.639 10.84 232.391 10.84ZM232.343 15.208C230.583 15.208 229.367 15.448 228.695 15.928C228.023 16.376 227.687 17.192 227.687 18.376C227.687 19.56 228.023 20.392 228.695 20.872C229.367 21.352 230.583 21.592 232.343 21.592C234.103 21.592 235.303 21.352 235.943 20.872C236.583 20.392 236.903 19.56 236.903 18.376C236.903 17.192 236.583 16.376 235.943 15.928C235.303 15.448 234.103 15.208 232.343 15.208ZM246.263 11.464L245.879 14.488L239.543 15.304L237.815 11.464H246.263ZM225.191 24.424L228.743 25.048C228.295 25.304 227.975 25.704 227.783 26.248C227.623 26.792 227.671 27.304 227.927 27.784C228.183 28.264 228.743 28.552 229.607 28.648L238.343 29.656C240.839 29.912 242.599 30.616 243.623 31.768C244.647 32.888 245.159 34.536 245.159 36.712C245.159 38.76 244.743 40.328 243.911 41.416C243.079 42.536 241.751 43.304 239.927 43.72C238.103 44.136 235.671 44.344 232.631 44.344C230.135 44.344 228.071 44.216 226.439 43.96C224.839 43.736 223.559 43.352 222.599 42.808C221.671 42.264 221.015 41.544 220.631 40.648C220.279 39.784 220.103 38.696 220.103 37.384C220.103 36.392 220.279 35.544 220.631 34.84C220.983 34.104 221.575 33.448 222.407 32.872C223.271 32.296 224.471 31.768 226.007 31.288L229.511 30.04L232.055 31.048L230.135 32.296C229.335 32.872 228.679 33.368 228.167 33.784C227.687 34.168 227.335 34.552 227.111 34.936C226.919 35.32 226.823 35.832 226.823 36.472C226.823 37.208 226.983 37.768 227.303 38.152C227.623 38.568 228.199 38.84 229.031 38.968C229.895 39.128 231.063 39.208 232.535 39.208C234.071 39.208 235.271 39.128 236.135 38.968C236.999 38.84 237.591 38.584 237.911 38.2C238.263 37.816 238.439 37.272 238.439 36.568C238.439 35.96 238.311 35.512 238.055 35.224C237.831 34.936 237.431 34.728 236.855 34.6C236.311 34.44 235.543 34.296 234.551 34.168L227.111 33.352C225.863 33.224 224.887 32.888 224.183 32.344C223.479 31.8 222.983 31.144 222.695 30.376C222.439 29.576 222.375 28.776 222.503 27.976C222.631 27.176 222.919 26.456 223.367 25.816C223.847 25.176 224.455 24.712 225.191 24.424ZM272.609 10.84C274.593 10.84 276.273 11.112 277.649 11.656C279.025 12.168 280.065 13.064 280.769 14.344C281.505 15.592 281.873 17.32 281.873 19.528V35.176H276.209L275.201 30.04L274.721 29.32V19.48C274.721 18.36 274.449 17.544 273.905 17.032C273.393 16.52 272.401 16.264 270.929 16.264C269.713 16.264 268.193 16.312 266.369 16.408C264.545 16.472 262.673 16.568 260.753 16.696L260.081 11.992C261.233 11.768 262.561 11.576 264.065 11.416C265.569 11.256 267.073 11.128 268.577 11.032C270.081 10.904 271.425 10.84 272.609 10.84ZM278.945 20.584L278.897 24.568L268.337 24.616C267.473 24.616 266.849 24.824 266.465 25.24C266.113 25.656 265.937 26.216 265.937 26.92V28.072C265.937 28.872 266.161 29.496 266.609 29.944C267.057 30.36 267.777 30.568 268.769 30.568C269.601 30.568 270.497 30.392 271.457 30.04C272.449 29.688 273.425 29.192 274.385 28.552C275.345 27.912 276.193 27.16 276.929 26.296V29.368C276.641 29.848 276.209 30.456 275.633 31.192C275.089 31.896 274.385 32.6 273.521 33.304C272.657 33.976 271.649 34.552 270.497 35.032C269.345 35.512 268.033 35.752 266.561 35.752C265.121 35.752 263.825 35.496 262.673 34.984C261.521 34.472 260.609 33.72 259.937 32.728C259.265 31.736 258.929 30.504 258.929 29.032V26.584C258.929 24.696 259.569 23.224 260.849 22.168C262.129 21.112 263.889 20.584 266.129 20.584H278.945ZM27.5364 58.84C29.2004 58.84 30.8004 59.08 32.3364 59.56C33.9044 60.04 35.2804 60.824 36.4644 61.912L35.9844 65.176C34.8964 64.856 33.9204 64.568 33.0564 64.312C32.1924 64.056 31.1844 63.928 30.0324 63.928C29.0404 63.928 28.2404 64.104 27.6324 64.456C27.0244 64.808 26.5764 65.496 26.2884 66.52C26.0004 67.544 25.8564 69.064 25.8564 71.08C25.8564 72.968 25.9844 74.408 26.2404 75.4C26.5284 76.36 26.9604 77.032 27.5364 77.416C28.1444 77.768 28.9124 77.944 29.8404 77.944C30.6724 77.944 31.3924 77.864 32.0004 77.704C32.6084 77.512 33.2164 77.24 33.8244 76.888C34.4324 76.504 35.1204 76.04 35.8884 75.496L36.4164 79C35.4564 80.344 34.2084 81.48 32.6724 82.408C31.1364 83.304 29.2484 83.752 27.0084 83.752C23.9684 83.752 21.7924 82.664 20.4804 80.488C19.2004 78.312 18.5604 75.192 18.5604 71.128C18.5604 67.96 18.8804 65.496 19.5204 63.736C20.1924 61.944 21.2004 60.68 22.5444 59.944C23.8884 59.208 25.5524 58.84 27.5364 58.84ZM42.2724 49.576V83.176H36.6564L35.9364 78.808L35.1684 78.28V62.728L35.4564 62.104C35.3604 61.112 35.2804 60.12 35.2164 59.128C35.1844 58.104 35.1684 57.064 35.1684 56.008V49.576H42.2724ZM59.2971 58.84C63.2971 58.84 66.1611 59.528 67.8891 60.904C69.6491 62.248 70.5291 64.264 70.5291 66.952C70.5611 69.128 70.0171 70.76 68.8971 71.848C67.7771 72.904 65.8411 73.432 63.0891 73.432H49.8411V69.448H61.1211C62.2091 69.448 62.8971 69.224 63.1851 68.776C63.5051 68.296 63.6651 67.64 63.6651 66.808C63.6331 65.688 63.2971 64.92 62.6571 64.504C62.0491 64.056 61.0091 63.832 59.5371 63.832C58.2251 63.832 57.2011 64.008 56.4651 64.36C55.7291 64.712 55.2171 65.384 54.9291 66.376C54.6411 67.368 54.4971 68.808 54.4971 70.696C54.4971 72.68 54.6731 74.216 55.0251 75.304C55.3771 76.36 55.9691 77.096 56.8011 77.512C57.6651 77.928 58.8491 78.136 60.3531 78.136C61.4411 78.136 62.7851 78.104 64.3851 78.04C66.0171 77.944 67.6491 77.8 69.2811 77.608L69.9531 81.976C69.0251 82.424 67.9691 82.776 66.7851 83.032C65.6011 83.288 64.3851 83.464 63.1371 83.56C61.8891 83.688 60.6891 83.752 59.5371 83.752C56.5291 83.752 54.0971 83.32 52.2411 82.456C50.4171 81.56 49.0891 80.2 48.2571 78.376C47.4571 76.552 47.0571 74.216 47.0571 71.368C47.0571 68.264 47.4731 65.8 48.3051 63.976C49.1371 62.152 50.4491 60.84 52.2411 60.04C54.0331 59.24 56.3851 58.84 59.2971 58.84ZM86.1988 58.84C87.0628 58.84 88.0068 58.888 89.0308 58.984C90.0548 59.048 91.0788 59.192 92.1028 59.416C93.1588 59.608 94.1188 59.896 94.9828 60.28L94.2148 64.744C92.9348 64.712 91.7028 64.68 90.5188 64.648C89.3668 64.616 88.3268 64.6 87.3988 64.6C85.9588 64.6 84.8228 64.792 83.9908 65.176C83.1588 65.56 82.5508 66.248 82.1668 67.24C81.8148 68.2 81.6388 69.544 81.6388 71.272C81.6388 73.032 81.8148 74.408 82.1668 75.4C82.5508 76.392 83.1588 77.08 83.9908 77.464C84.8228 77.848 85.9588 78.04 87.3988 78.04C87.9108 78.04 88.5668 78.024 89.3668 77.992C90.1668 77.96 91.0308 77.928 91.9588 77.896C92.8868 77.832 93.7988 77.736 94.6948 77.608L95.3668 82.12C94.0868 82.696 92.6308 83.112 90.9988 83.368C89.3668 83.624 87.7508 83.752 86.1508 83.752C83.2068 83.752 80.8548 83.352 79.0948 82.552C77.3668 81.72 76.1188 80.392 75.3508 78.568C74.5828 76.744 74.1988 74.312 74.1988 71.272C74.1988 68.232 74.5828 65.8 75.3508 63.976C76.1508 62.152 77.4308 60.84 79.1908 60.04C80.9508 59.24 83.2868 58.84 86.1988 58.84ZM112.109 58.84C114.093 58.84 115.773 59.112 117.149 59.656C118.525 60.168 119.565 61.064 120.269 62.344C121.005 63.592 121.373 65.32 121.373 67.528V83.176H115.709L114.701 78.04L114.221 77.32V67.48C114.221 66.36 113.949 65.544 113.405 65.032C112.893 64.52 111.901 64.264 110.429 64.264C109.213 64.264 107.693 64.312 105.869 64.408C104.045 64.472 102.173 64.568 100.253 64.696L99.5807 59.992C100.733 59.768 102.061 59.576 103.565 59.416C105.069 59.256 106.573 59.128 108.077 59.032C109.581 58.904 110.925 58.84 112.109 58.84ZM118.445 68.584L118.397 72.568L107.837 72.616C106.973 72.616 106.349 72.824 105.965 73.24C105.613 73.656 105.437 74.216 105.437 74.92V76.072C105.437 76.872 105.661 77.496 106.109 77.944C106.557 78.36 107.277 78.568 108.269 78.568C109.101 78.568 109.997 78.392 110.957 78.04C111.949 77.688 112.925 77.192 113.885 76.552C114.845 75.912 115.693 75.16 116.429 74.296V77.368C116.141 77.848 115.709 78.456 115.133 79.192C114.589 79.896 113.885 80.6 113.021 81.304C112.157 81.976 111.149 82.552 109.997 83.032C108.845 83.512 107.533 83.752 106.061 83.752C104.621 83.752 103.325 83.496 102.173 82.984C101.021 82.472 100.109 81.72 99.4367 80.728C98.7647 79.736 98.4287 78.504 98.4287 77.032V74.584C98.4287 72.696 99.0687 71.224 100.349 70.168C101.629 69.112 103.389 68.584 105.629 68.584H118.445ZM135.068 58.84C136.732 58.84 138.332 59.08 139.868 59.56C141.436 60.04 142.812 60.824 143.996 61.912L143.516 65.176C142.428 64.856 141.452 64.568 140.588 64.312C139.724 64.056 138.716 63.928 137.564 63.928C136.572 63.928 135.772 64.104 135.164 64.456C134.556 64.808 134.108 65.496 133.82 66.52C133.532 67.544 133.388 69.064 133.388 71.08C133.388 72.968 133.516 74.408 133.772 75.4C134.06 76.36 134.492 77.032 135.068 77.416C135.676 77.768 136.444 77.944 137.372 77.944C138.204 77.944 138.924 77.864 139.532 77.704C140.14 77.512 140.748 77.24 141.356 76.888C141.964 76.504 142.652 76.04 143.42 75.496L143.948 79C142.988 80.344 141.74 81.48 140.204 82.408C138.668 83.304 136.78 83.752 134.54 83.752C131.5 83.752 129.324 82.664 128.012 80.488C126.732 78.312 126.092 75.192 126.092 71.128C126.092 67.96 126.412 65.496 127.052 63.736C127.724 61.944 128.732 60.68 130.076 59.944C131.42 59.208 133.084 58.84 135.068 58.84ZM149.804 49.576V83.176H144.188L143.468 78.808L142.7 78.28V62.728L142.988 62.104C142.892 61.112 142.812 60.12 142.748 59.128C142.716 58.104 142.7 57.064 142.7 56.008V49.576H149.804ZM166.828 58.84C170.828 58.84 173.692 59.528 175.42 60.904C177.18 62.248 178.06 64.264 178.06 66.952C178.092 69.128 177.548 70.76 176.428 71.848C175.308 72.904 173.372 73.432 170.62 73.432H157.372V69.448H168.652C169.74 69.448 170.428 69.224 170.716 68.776C171.036 68.296 171.196 67.64 171.196 66.808C171.164 65.688 170.828 64.92 170.188 64.504C169.58 64.056 168.54 63.832 167.068 63.832C165.756 63.832 164.732 64.008 163.996 64.36C163.26 64.712 162.748 65.384 162.46 66.376C162.172 67.368 162.028 68.808 162.028 70.696C162.028 72.68 162.204 74.216 162.556 75.304C162.908 76.36 163.5 77.096 164.332 77.512C165.196 77.928 166.38 78.136 167.884 78.136C168.972 78.136 170.316 78.104 171.916 78.04C173.548 77.944 175.18 77.8 176.812 77.608L177.484 81.976C176.556 82.424 175.5 82.776 174.316 83.032C173.132 83.288 171.916 83.464 170.668 83.56C169.42 83.688 168.22 83.752 167.068 83.752C164.06 83.752 161.628 83.32 159.772 82.456C157.948 81.56 156.62 80.2 155.788 78.376C154.988 76.552 154.588 74.216 154.588 71.368C154.588 68.264 155.004 65.8 155.836 63.976C156.668 62.152 157.98 60.84 159.772 60.04C161.564 59.24 163.916 58.84 166.828 58.84ZM196.898 68.68V73.192H182.594V68.68H196.898ZM213.845 58.84C216.821 58.84 219.205 59.256 220.997 60.088C222.789 60.888 224.069 62.2 224.837 64.024C225.637 65.848 226.037 68.296 226.037 71.368C226.037 74.376 225.637 76.792 224.837 78.616C224.069 80.44 222.789 81.752 220.997 82.552C219.205 83.352 216.821 83.752 213.845 83.752C210.901 83.752 208.517 83.352 206.693 82.552C204.901 81.752 203.605 80.44 202.805 78.616C202.005 76.792 201.605 74.376 201.605 71.368C201.605 68.296 202.005 65.848 202.805 64.024C203.605 62.2 204.901 60.888 206.693 60.088C208.517 59.256 210.901 58.84 213.845 58.84ZM213.845 64.024C212.629 64.024 211.669 64.232 210.965 64.648C210.261 65.064 209.765 65.8 209.477 66.856C209.189 67.912 209.045 69.416 209.045 71.368C209.045 73.288 209.189 74.776 209.477 75.832C209.765 76.888 210.261 77.624 210.965 78.04C211.669 78.424 212.629 78.616 213.845 78.616C215.061 78.616 216.021 78.424 216.725 78.04C217.429 77.624 217.925 76.888 218.213 75.832C218.501 74.776 218.645 73.288 218.645 71.368C218.645 69.416 218.501 67.912 218.213 66.856C217.925 65.8 217.429 65.064 216.725 64.648C216.021 64.232 215.061 64.024 213.845 64.024ZM238.03 49.576L237.982 75.592C237.982 76.392 238.222 77 238.702 77.416C239.182 77.8 239.886 77.992 240.814 77.992H242.734L243.55 82.792C243.166 82.984 242.622 83.144 241.918 83.272C241.214 83.432 240.494 83.544 239.758 83.608C239.022 83.704 238.398 83.752 237.886 83.752C235.742 83.752 234.046 83.192 232.798 82.072C231.55 80.952 230.926 79.384 230.926 77.368V49.576H238.03ZM254.74 58.84C256.404 58.84 258.004 59.08 259.54 59.56C261.108 60.04 262.484 60.824 263.668 61.912L263.188 65.176C262.1 64.856 261.124 64.568 260.26 64.312C259.396 64.056 258.388 63.928 257.236 63.928C256.244 63.928 255.444 64.104 254.836 64.456C254.228 64.808 253.78 65.496 253.492 66.52C253.204 67.544 253.06 69.064 253.06 71.08C253.06 72.968 253.188 74.408 253.444 75.4C253.732 76.36 254.164 77.032 254.74 77.416C255.348 77.768 256.116 77.944 257.044 77.944C257.876 77.944 258.596 77.864 259.204 77.704C259.812 77.512 260.42 77.24 261.028 76.888C261.636 76.504 262.324 76.04 263.092 75.496L263.62 79C262.66 80.344 261.412 81.48 259.876 82.408C258.34 83.304 256.452 83.752 254.212 83.752C251.172 83.752 248.996 82.664 247.684 80.488C246.404 78.312 245.764 75.192 245.764 71.128C245.764 67.96 246.084 65.496 246.724 63.736C247.396 61.944 248.404 60.68 249.748 59.944C251.092 59.208 252.756 58.84 254.74 58.84ZM269.476 49.576V83.176H263.86L263.14 78.808L262.372 78.28V62.728L262.66 62.104C262.564 61.112 262.484 60.12 262.42 59.128C262.388 58.104 262.372 57.064 262.372 56.008V49.576H269.476ZM11.1281 106.84C12.2801 106.84 13.5281 106.888 14.8721 106.984C16.2161 107.048 17.5281 107.144 18.8081 107.272C20.0881 107.4 21.2241 107.56 22.2161 107.752L21.7361 112.168C20.2001 112.136 18.6481 112.12 17.0801 112.12C15.5441 112.088 14.0401 112.072 12.5681 112.072C11.3201 112.04 10.3601 112.056 9.68812 112.12C9.01612 112.184 8.53612 112.344 8.24812 112.6C7.99212 112.824 7.86412 113.24 7.86412 113.848C7.86412 114.552 8.10412 115.032 8.58412 115.288C9.06412 115.512 9.86412 115.768 10.9841 116.056L17.1761 117.544C19.1601 118.056 20.6321 118.824 21.5921 119.848C22.5521 120.84 23.0321 122.344 23.0321 124.36C23.0321 126.344 22.6641 127.864 21.9281 128.92C21.1921 129.976 20.0241 130.712 18.4241 131.128C16.8241 131.512 14.7601 131.704 12.2321 131.704C11.2401 131.704 9.76812 131.656 7.81612 131.56C5.86412 131.464 3.72012 131.224 1.38412 130.84L1.86412 126.424C2.44012 126.456 3.17612 126.488 4.07212 126.52C4.96812 126.52 5.94412 126.52 7.00012 126.52C8.05612 126.52 9.11212 126.52 10.1681 126.52C11.8001 126.52 13.0481 126.488 13.9121 126.424C14.7761 126.328 15.3681 126.136 15.6881 125.848C16.0081 125.56 16.1681 125.128 16.1681 124.552C16.1681 123.848 15.8961 123.368 15.3521 123.112C14.8081 122.856 13.9441 122.584 12.7601 122.296L6.76012 120.808C5.25612 120.392 4.08812 119.864 3.25612 119.224C2.42412 118.584 1.83212 117.8 1.48012 116.872C1.16012 115.944 1.00012 114.84 1.00012 113.56C1.00012 111.928 1.32012 110.632 1.96012 109.672C2.63212 108.68 3.70412 107.96 5.17612 107.512C6.68012 107.064 8.66412 106.84 11.1281 106.84ZM34.8521 107.464V131.176H27.7961V107.464H34.8521ZM32.8841 97C34.2921 97 34.9961 97.72 34.9961 99.16V101.704C34.9961 103.144 34.2921 103.864 32.8841 103.864H29.8121C28.4041 103.864 27.7001 103.144 27.7001 101.704V99.16C27.7001 97.72 28.4041 97 29.8121 97H32.8841ZM50.1337 100.888V123.592C50.1337 124.456 50.3257 125.08 50.7097 125.464C51.1257 125.816 51.7977 125.992 52.7257 125.992H55.7977L56.5657 130.792C55.9897 130.984 55.2857 131.144 54.4537 131.272C53.6217 131.432 52.7897 131.544 51.9577 131.608C51.1257 131.704 50.4217 131.752 49.8457 131.752C47.7017 131.752 46.0217 131.176 44.8057 130.024C43.6217 128.872 43.0297 127.256 43.0297 125.176L42.9817 100.888H50.1337ZM56.7577 107.464V112.12H38.8537V107.704L43.4617 107.464H56.7577ZM71.7892 106.84C75.7892 106.84 78.6532 107.528 80.3812 108.904C82.1412 110.248 83.0212 112.264 83.0212 114.952C83.0532 117.128 82.5092 118.76 81.3892 119.848C80.2692 120.904 78.3332 121.432 75.5812 121.432H62.3332V117.448H73.6132C74.7012 117.448 75.3892 117.224 75.6772 116.776C75.9972 116.296 76.1572 115.64 76.1572 114.808C76.1252 113.688 75.7892 112.92 75.1492 112.504C74.5412 112.056 73.5012 111.832 72.0292 111.832C70.7172 111.832 69.6932 112.008 68.9572 112.36C68.2212 112.712 67.7092 113.384 67.4212 114.376C67.1332 115.368 66.9892 116.808 66.9892 118.696C66.9892 120.68 67.1652 122.216 67.5172 123.304C67.8692 124.36 68.4612 125.096 69.2932 125.512C70.1572 125.928 71.3412 126.136 72.8452 126.136C73.9332 126.136 75.2772 126.104 76.8772 126.04C78.5092 125.944 80.1412 125.8 81.7732 125.608L82.4452 129.976C81.5172 130.424 80.4612 130.776 79.2772 131.032C78.0932 131.288 76.8772 131.464 75.6292 131.56C74.3812 131.688 73.1812 131.752 72.0292 131.752C69.0212 131.752 66.5892 131.32 64.7332 130.456C62.9092 129.56 61.5812 128.2 60.7492 126.376C59.9492 124.552 59.5492 122.216 59.5492 119.368C59.5492 116.264 59.9652 113.8 60.7972 111.976C61.6292 110.152 62.9412 108.84 64.7332 108.04C66.5252 107.24 68.8772 106.84 71.7892 106.84Z" fill="black"/>
<path d="M107.243 96.568C107.819 96.568 108.571 96.584 109.499 96.616C110.459 96.648 111.419 96.712 112.379 96.808C113.371 96.872 114.219 96.968 114.923 97.096L114.299 101.656H109.787C108.571 101.656 107.723 101.896 107.243 102.376C106.763 102.856 106.523 103.688 106.523 104.872V131.176H99.4192V103.96C99.4192 102.456 99.6592 101.16 100.139 100.072C100.651 98.984 101.483 98.136 102.635 97.528C103.787 96.888 105.323 96.568 107.243 96.568ZM113.147 107.464V112.12H95.2912V107.704L99.5632 107.464H113.147ZM122.281 107.464L123.145 112.168L123.817 112.792V131.176H116.713V107.464H122.281ZM133.849 106.84L133.177 113.416H131.209C130.089 113.416 128.921 113.576 127.705 113.896C126.489 114.216 124.953 114.696 123.097 115.336L122.617 111.352C124.281 109.88 125.961 108.76 127.657 107.992C129.353 107.224 131.001 106.84 132.601 106.84H133.849ZM148.103 106.84C151.079 106.84 153.463 107.256 155.255 108.088C157.047 108.888 158.327 110.2 159.095 112.024C159.895 113.848 160.295 116.296 160.295 119.368C160.295 122.376 159.895 124.792 159.095 126.616C158.327 128.44 157.047 129.752 155.255 130.552C153.463 131.352 151.079 131.752 148.103 131.752C145.159 131.752 142.775 131.352 140.951 130.552C139.159 129.752 137.863 128.44 137.063 126.616C136.263 124.792 135.863 122.376 135.863 119.368C135.863 116.296 136.263 113.848 137.063 112.024C137.863 110.2 139.159 108.888 140.951 108.088C142.775 107.256 145.159 106.84 148.103 106.84ZM148.103 112.024C146.887 112.024 145.927 112.232 145.223 112.648C144.519 113.064 144.023 113.8 143.735 114.856C143.447 115.912 143.303 117.416 143.303 119.368C143.303 121.288 143.447 122.776 143.735 123.832C144.023 124.888 144.519 125.624 145.223 126.04C145.927 126.424 146.887 126.616 148.103 126.616C149.319 126.616 150.279 126.424 150.983 126.04C151.687 125.624 152.183 124.888 152.471 123.832C152.759 122.776 152.903 121.288 152.903 119.368C152.903 117.416 152.759 115.912 152.471 114.856C152.183 113.8 151.687 113.064 150.983 112.648C150.279 112.232 149.319 112.024 148.103 112.024ZM195.183 106.84C197.327 106.84 198.959 107.4 200.079 108.52C201.199 109.64 201.759 111.272 201.759 113.416V131.176H194.703V115.624C194.703 114.632 194.511 113.928 194.127 113.512C193.743 113.064 193.071 112.84 192.111 112.84C191.535 112.84 190.991 112.92 190.479 113.08C189.967 113.24 189.375 113.496 188.703 113.848C188.031 114.2 187.215 114.68 186.255 115.288L185.871 111.352C187.407 109.848 188.911 108.728 190.383 107.992C191.887 107.224 193.487 106.84 195.183 106.84ZM170.799 107.464L171.519 112.168L172.239 112.792V131.176H165.135V107.464H170.799ZM180.399 106.84C182.511 106.84 184.111 107.4 185.199 108.52C186.319 109.608 186.879 111.24 186.879 113.416V131.176H180.063V115.624C180.063 114.6 179.839 113.88 179.391 113.464C178.975 113.048 178.319 112.84 177.423 112.84C176.879 112.84 176.335 112.92 175.791 113.08C175.279 113.208 174.671 113.448 173.967 113.8C173.295 114.152 172.463 114.648 171.471 115.288L171.039 111.352C172.607 109.848 174.127 108.728 175.599 107.992C177.071 107.224 178.671 106.84 180.399 106.84ZM226.243 100.888V123.592C226.243 124.456 226.435 125.08 226.819 125.464C227.235 125.816 227.907 125.992 228.835 125.992H231.907L232.675 130.792C232.099 130.984 231.395 131.144 230.563 131.272C229.731 131.432 228.899 131.544 228.067 131.608C227.235 131.704 226.531 131.752 225.955 131.752C223.811 131.752 222.131 131.176 220.915 130.024C219.731 128.872 219.139 127.256 219.139 125.176L219.091 100.888H226.243ZM232.867 107.464V112.12H214.963V107.704L219.571 107.464H232.867ZM253.179 106.84C257.659 106.84 259.899 109.032 259.899 113.416V131.176H252.747V115.624C252.747 114.568 252.555 113.848 252.171 113.464C251.819 113.048 251.179 112.84 250.251 112.84C249.227 112.84 248.171 113.032 247.083 113.416C245.995 113.8 244.651 114.424 243.051 115.288L242.427 111.592C244.187 110.056 245.979 108.888 247.803 108.088C249.627 107.256 251.419 106.84 253.179 106.84ZM243.771 97.576L243.819 105.784C243.819 107.032 243.739 108.216 243.579 109.336C243.451 110.456 243.291 111.4 243.099 112.168L243.771 112.792V131.176H236.667V97.576H243.771ZM276.727 106.84C280.727 106.84 283.591 107.528 285.319 108.904C287.079 110.248 287.959 112.264 287.959 114.952C287.991 117.128 287.447 118.76 286.327 119.848C285.207 120.904 283.271 121.432 280.519 121.432H267.271V117.448H278.551C279.639 117.448 280.327 117.224 280.615 116.776C280.935 116.296 281.095 115.64 281.095 114.808C281.063 113.688 280.727 112.92 280.087 112.504C279.479 112.056 278.439 111.832 276.967 111.832C275.655 111.832 274.631 112.008 273.895 112.36C273.159 112.712 272.647 113.384 272.359 114.376C272.071 115.368 271.927 116.808 271.927 118.696C271.927 120.68 272.103 122.216 272.455 123.304C272.807 124.36 273.399 125.096 274.231 125.512C275.095 125.928 276.279 126.136 277.783 126.136C278.871 126.136 280.215 126.104 281.815 126.04C283.447 125.944 285.079 125.8 286.711 125.608L287.383 129.976C286.455 130.424 285.399 130.776 284.215 131.032C283.031 131.288 281.815 131.464 280.567 131.56C279.319 131.688 278.119 131.752 276.967 131.752C273.959 131.752 271.527 131.32 269.671 130.456C267.847 129.56 266.519 128.2 265.687 126.376C264.887 124.552 264.487 122.216 264.487 119.368C264.487 116.264 264.903 113.8 265.735 111.976C266.567 110.152 267.879 108.84 269.671 108.04C271.463 107.24 273.815 106.84 276.727 106.84ZM37.1329 154.84C39.8849 154.84 42.0609 155.096 43.6609 155.608C45.2929 156.12 46.4609 156.92 47.1649 158.008C47.9009 159.096 48.2689 160.552 48.2689 162.376C48.2689 164.136 47.9169 165.576 47.2129 166.696C46.5089 167.784 45.3249 168.584 43.6609 169.096C42.0289 169.608 39.8369 169.864 37.0849 169.864C34.3329 169.864 32.1249 169.608 30.4609 169.096C28.8289 168.584 27.6449 167.784 26.9089 166.696C26.2049 165.608 25.8529 164.168 25.8529 162.376C25.8529 160.584 26.2049 159.144 26.9089 158.056C27.6449 156.936 28.8449 156.12 30.5089 155.608C32.1729 155.096 34.3809 154.84 37.1329 154.84ZM37.0849 159.208C35.3249 159.208 34.1089 159.448 33.4369 159.928C32.7649 160.376 32.4289 161.192 32.4289 162.376C32.4289 163.56 32.7649 164.392 33.4369 164.872C34.1089 165.352 35.3249 165.592 37.0849 165.592C38.8449 165.592 40.0449 165.352 40.6849 164.872C41.3249 164.392 41.6449 163.56 41.6449 162.376C41.6449 161.192 41.3249 160.376 40.6849 159.928C40.0449 159.448 38.8449 159.208 37.0849 159.208ZM51.0049 155.464L50.6209 158.488L44.2849 159.304L42.5569 155.464H51.0049ZM29.9329 168.424L33.4849 169.048C33.0369 169.304 32.7169 169.704 32.5249 170.248C32.3649 170.792 32.4129 171.304 32.6689 171.784C32.9249 172.264 33.4849 172.552 34.3489 172.648L43.0849 173.656C45.5809 173.912 47.3409 174.616 48.3649 175.768C49.3889 176.888 49.9009 178.536 49.9009 180.712C49.9009 182.76 49.4849 184.328 48.6529 185.416C47.8209 186.536 46.4929 187.304 44.6689 187.72C42.8449 188.136 40.4129 188.344 37.3729 188.344C34.8769 188.344 32.8129 188.216 31.1809 187.96C29.5809 187.736 28.3009 187.352 27.3409 186.808C26.4129 186.264 25.7569 185.544 25.3729 184.648C25.0209 183.784 24.8449 182.696 24.8449 181.384C24.8449 180.392 25.0209 179.544 25.3729 178.84C25.7249 178.104 26.3169 177.448 27.1489 176.872C28.0129 176.296 29.2129 175.768 30.7489 175.288L34.2529 174.04L36.7969 175.048L34.8769 176.296C34.0769 176.872 33.4209 177.368 32.9089 177.784C32.4289 178.168 32.0769 178.552 31.8529 178.936C31.6609 179.32 31.5649 179.832 31.5649 180.472C31.5649 181.208 31.7249 181.768 32.0449 182.152C32.3649 182.568 32.9409 182.84 33.7729 182.968C34.6369 183.128 35.8049 183.208 37.2769 183.208C38.8129 183.208 40.0129 183.128 40.8769 182.968C41.7409 182.84 42.3329 182.584 42.6529 182.2C43.0049 181.816 43.1809 181.272 43.1809 180.568C43.1809 179.96 43.0529 179.512 42.7969 179.224C42.5729 178.936 42.1729 178.728 41.5969 178.6C41.0529 178.44 40.2849 178.296 39.2929 178.168L31.8529 177.352C30.6049 177.224 29.6289 176.888 28.9249 176.344C28.2209 175.8 27.7249 175.144 27.4369 174.376C27.1809 173.576 27.1169 172.776 27.2449 171.976C27.3729 171.176 27.6609 170.456 28.1089 169.816C28.5889 169.176 29.1969 168.712 29.9329 168.424ZM60.0315 155.464L60.8955 160.168L61.5675 160.792V179.176H54.4635V155.464H60.0315ZM71.5995 154.84L70.9275 161.416H68.9595C67.8395 161.416 66.6715 161.576 65.4555 161.896C64.2395 162.216 62.7035 162.696 60.8475 163.336L60.3675 159.352C62.0315 157.88 63.7115 156.76 65.4075 155.992C67.1035 155.224 68.7515 154.84 70.3515 154.84H71.5995ZM85.8529 154.84C88.8289 154.84 91.2129 155.256 93.0049 156.088C94.7969 156.888 96.0769 158.2 96.8449 160.024C97.6449 161.848 98.0449 164.296 98.0449 167.368C98.0449 170.376 97.6449 172.792 96.8449 174.616C96.0769 176.44 94.7969 177.752 93.0049 178.552C91.2129 179.352 88.8289 179.752 85.8529 179.752C82.9089 179.752 80.5249 179.352 78.7009 178.552C76.9089 177.752 75.6129 176.44 74.8129 174.616C74.0129 172.792 73.6129 170.376 73.6129 167.368C73.6129 164.296 74.0129 161.848 74.8129 160.024C75.6129 158.2 76.9089 156.888 78.7009 156.088C80.5249 155.256 82.9089 154.84 85.8529 154.84ZM85.8529 160.024C84.6369 160.024 83.6769 160.232 82.9729 160.648C82.2689 161.064 81.7729 161.8 81.4849 162.856C81.1969 163.912 81.0529 165.416 81.0529 167.368C81.0529 169.288 81.1969 170.776 81.4849 171.832C81.7729 172.888 82.2689 173.624 82.9729 174.04C83.6769 174.424 84.6369 174.616 85.8529 174.616C87.0689 174.616 88.0289 174.424 88.7329 174.04C89.4369 173.624 89.9329 172.888 90.2209 171.832C90.5089 170.776 90.6529 169.288 90.6529 167.368C90.6529 165.416 90.5089 163.912 90.2209 162.856C89.9329 161.8 89.4369 161.064 88.7329 160.648C88.0289 160.232 87.0689 160.024 85.8529 160.024ZM109.845 155.464V171.064C109.845 172.056 110.053 172.76 110.469 173.176C110.917 173.592 111.621 173.8 112.581 173.8C113.573 173.8 114.549 173.624 115.509 173.272C116.501 172.888 117.717 172.296 119.157 171.496L119.733 175.384C118.005 176.888 116.309 178.008 114.645 178.744C112.981 179.48 111.269 179.848 109.509 179.848C104.997 179.848 102.741 177.64 102.741 173.224V155.464H109.845ZM125.541 155.464V179.176H119.925L119.109 174.52L118.437 173.848V155.464H125.541ZM147.85 154.84C152.33 154.84 154.57 157.032 154.57 161.416V179.176H147.466V163.624C147.466 162.568 147.274 161.848 146.89 161.464C146.506 161.048 145.85 160.84 144.922 160.84C143.898 160.84 142.842 161.048 141.754 161.464C140.666 161.848 139.322 162.456 137.722 163.288L137.386 159.304C139.082 157.864 140.81 156.76 142.57 155.992C144.362 155.224 146.122 154.84 147.85 154.84ZM137.05 155.464L137.866 160.168L138.442 160.792V179.176H131.338V155.464H137.05ZM168.279 154.84C169.943 154.84 171.543 155.08 173.079 155.56C174.647 156.04 176.023 156.824 177.207 157.912L176.727 161.176C175.639 160.856 174.663 160.568 173.799 160.312C172.935 160.056 171.927 159.928 170.775 159.928C169.783 159.928 168.983 160.104 168.375 160.456C167.767 160.808 167.319 161.496 167.031 162.52C166.743 163.544 166.599 165.064 166.599 167.08C166.599 168.968 166.727 170.408 166.983 171.4C167.271 172.36 167.703 173.032 168.279 173.416C168.887 173.768 169.655 173.944 170.583 173.944C171.415 173.944 172.135 173.864 172.743 173.704C173.351 173.512 173.959 173.24 174.567 172.888C175.175 172.504 175.863 172.04 176.631 171.496L177.159 175C176.199 176.344 174.951 177.48 173.415 178.408C171.879 179.304 169.991 179.752 167.751 179.752C164.711 179.752 162.535 178.664 161.223 176.488C159.943 174.312 159.303 171.192 159.303 167.128C159.303 163.96 159.623 161.496 160.263 159.736C160.935 157.944 161.943 156.68 163.287 155.944C164.631 155.208 166.295 154.84 168.279 154.84ZM183.015 145.576V179.176H177.399L176.679 174.808L175.911 174.28V158.728L176.199 158.104C176.103 157.112 176.023 156.12 175.959 155.128C175.927 154.104 175.911 153.064 175.911 152.008V145.576H183.015ZM206.127 155.464V171.064C206.127 172.056 206.335 172.76 206.751 173.176C207.199 173.592 207.903 173.8 208.863 173.8C209.855 173.8 210.831 173.624 211.791 173.272C212.783 172.888 213.999 172.296 215.439 171.496L216.015 175.384C214.287 176.888 212.591 178.008 210.927 178.744C209.263 179.48 207.551 179.848 205.791 179.848C201.279 179.848 199.023 177.64 199.023 173.224V155.464H206.127ZM221.823 155.464V179.176H216.207L215.391 174.52L214.719 173.848V155.464H221.823ZM243.22 154.888C246.196 154.888 248.324 155.976 249.604 158.152C250.884 160.328 251.524 163.448 251.524 167.512C251.524 170.68 251.188 173.16 250.516 174.952C249.876 176.744 248.884 178.008 247.54 178.744C246.228 179.448 244.58 179.8 242.596 179.8C240.9 179.8 239.284 179.56 237.748 179.08C236.212 178.6 234.852 177.8 233.668 176.68L234.148 173.512C235.204 173.832 236.164 174.12 237.028 174.376C237.924 174.6 238.932 174.712 240.052 174.712C241.076 174.712 241.892 174.536 242.5 174.184C243.108 173.832 243.54 173.144 243.796 172.12C244.084 171.064 244.228 169.544 244.228 167.56C244.228 165.608 244.1 164.12 243.844 163.096C243.588 162.04 243.172 161.32 242.596 160.936C242.02 160.52 241.268 160.312 240.34 160.312C239.316 160.312 238.372 160.52 237.508 160.936C236.644 161.32 235.668 161.88 234.58 162.616L233.668 159.352C234.308 158.488 235.124 157.72 236.116 157.048C237.14 156.376 238.26 155.848 239.476 155.464C240.692 155.08 241.94 154.888 243.22 154.888ZM233.38 155.464L234.052 159.784L234.724 160.504V175.912L234.484 176.488C234.58 177.448 234.644 178.44 234.676 179.464C234.74 180.52 234.756 181.56 234.724 182.584V188.296H227.62V155.464H233.38ZM260.289 171.88C261.217 171.88 261.857 172.072 262.209 172.456C262.593 172.808 262.785 173.448 262.785 174.376V176.68C262.785 177.608 262.593 178.264 262.209 178.648C261.857 179 261.217 179.176 260.289 179.176H258.465C257.537 179.176 256.881 179 256.497 178.648C256.145 178.264 255.969 177.608 255.969 176.68V174.376C255.969 173.448 256.145 172.808 256.497 172.456C256.881 172.072 257.537 171.88 258.465 171.88H260.289Z" fill="#4E9934"/>
</g>
<defs>
<filter id="filter0_ng_62_46" x="0" y="0" width="289.007" height="189.344" filterUnits="userSpaceOnUse" color-interpolation-filters="sRGB">
<feFlood flood-opacity="0" result="BackgroundImageFix"/>
<feBlend mode="normal" in="SourceGraphic" in2="BackgroundImageFix" result="shape"/>
<feTurbulence type="fractalNoise" baseFrequency="0.40000000596046448 0.40000000596046448" stitchTiles="stitch" numOctaves="3" result="noise" seed="5111" />
<feColorMatrix in="noise" type="luminanceToAlpha" result="alphaNoise" />
<feComponentTransfer in="alphaNoise" result="coloredNoise1">
<feFuncA type="discrete" tableValues="0 0 0 0 0 0 1 1 1 1 1 1 1 1 1 1 1 1 1 1 1 1 1 1 1 1 1 1 1 1 1 1 1 1 1 1 1 1 1 1 1 1 1 0 0 0 0 0 0 0 0 0 0 0 0 0 0 0 0 0 0 0 0 0 0 0 0 0 0 0 0 0 0 0 0 0 0 0 0 0 0 0 0 0 0 0 0 0 0 0 0 0 0 0 0 0 0 0 0 0 "/>
</feComponentTransfer>
<feComposite operator="in" in2="shape" in="coloredNoise1" result="noise1Clipped" />
<feFlood flood-color="rgba(249, 246, 221, 0.16)" result="color1Flood" />
<feComposite operator="in" in2="noise1Clipped" in="color1Flood" result="color1" />
<feMerge result="effect1_noise_62_46">
<feMergeNode in="shape" />
<feMergeNode in="color1" />
</feMerge>
<feTurbulence type="fractalNoise" baseFrequency="0.3333333432674408 0.3333333432674408" numOctaves="3" seed="5277" />
<feDisplacementMap in="effect1_noise_62_46" scale="2" xChannelSelector="R" yChannelSelector="G" result="displacedImage" width="100%" height="100%" />
<feMerge result="effect2_texture_62_46">
<feMergeNode in="displacedImage"/>
</feMerge>
</filter>
</defs>
</svg>
